<svg version="1.1" viewBox="0.0 0.0 960.0 720.0" fill="none" stroke="none" stroke-linecap="square" stroke-miterlimit="10" xmlns:xlink="http://www.w3.org/1999/xlink" xmlns="http://www.w3.org/2000/svg"><clipPath id="p.0"><path d="m0 0l960.0 0l0 720.0l-960.0 0l0 -720.0z" clip-rule="nonzero"/></clipPath><g clip-path="url(#p.0)"><path fill="#000000" fill-opacity="0.0" d="m0 0l960.0 0l0 720.0l-960.0 0z" fill-rule="evenodd"/><path fill="#660000" d="m309.83075 647.111l-127.88977 -501.29138l312.86615 422.48822z" fill-rule="evenodd"/><path stroke="#85200c" stroke-width="1.0" stroke-linejoin="round" stroke-linecap="butt" d="m309.83075 647.111l-127.88977 -501.29138l312.86615 422.48822z" fill-rule="evenodd"/><path fill="#5b0f00" d="m269.03912 670.87915l5.3385925 -515.60626l194.37796 481.81097z" fill-rule="evenodd"/><path stroke="#85200c" stroke-width="1.0" stroke-linejoin="round" stroke-linecap="butt" d="m269.03912 670.87915l5.3385925 -515.60626l194.37796 481.81097z" fill-rule="evenodd"/><path fill="#5b0f00" d="m319.48926 611.643l18.094482 -515.33856l182.44098 485.98425z" fill-rule="evenodd"/><path stroke="#85200c" stroke-width="1.0" stroke-linejoin="round" stroke-linecap="butt" d="m319.48926 611.643l18.094482 -515.33856l182.44098 485.98425z" fill-rule="evenodd"/><path fill="#660000" d="m456.24173 611.2947l274.9606 -445.4016l-83.71649 509.4961z" fill-rule="evenodd"/><path stroke="#85200c" stroke-width="1.0" stroke-linejoin="round" stroke-linecap="butt" d="m456.24173 611.2947l274.9606 -445.4016l-83.71649 509.4961z" fill-rule="evenodd"/><path fill="#660000" d="m317.10928 542.44226l101.44882 -506.64566l101.44885 506.64566z" fill-rule="evenodd"/><path stroke="#85200c" stroke-width="1.0" stroke-linejoin="round" stroke-linecap="butt" d="m317.10928 542.44226l101.44882 -506.64566l101.44885 506.64566z" fill-rule="evenodd"/><path fill="#5b0f00" d="m385.86313 558.57336l101.44882 -506.64566l101.44885 506.64566z" fill-rule="evenodd"/><path stroke="#85200c" stroke-width="1.0" stroke-linejoin="round" stroke-linecap="butt" d="m385.86313 558.57336l101.44882 -506.64566l101.44885 506.64566z" fill-rule="evenodd"/><path fill="#5b0f00" d="m417.84067 525.4975l235.65353 -465.0866l-39.55902 514.31494z" fill-rule="evenodd"/><path stroke="#85200c" stroke-width="1.0" stroke-linejoin="round" stroke-linecap="butt" d="m417.84067 525.4975l235.65353 -465.0866l-39.55902 514.31494z" fill-rule="evenodd"/><path fill="#5b0f00" d="m257.1062 670.8509l-94.80315 -382.3307l240.50395 320.28345z" fill-rule="evenodd"/><path stroke="#85200c" stroke-width="1.0" stroke-linejoin="round" stroke-linecap="butt" d="m257.1062 670.8509l-94.80315 -382.3307l240.50395 320.28345z" fill-rule="evenodd"/><path fill="#5b0f00" d="m456.2307 620.1082l222.6883 -152.78018l-31.444214 216.87466z" fill-rule="evenodd"/><path stroke="#85200c" stroke-width="1.0" stroke-linejoin="round" stroke-linecap="butt" d="m456.2307 620.1082l222.6883 -152.78018l-31.444214 216.87466z" fill-rule="evenodd"/><path fill="#5b0f00" d="m487.30203 564.43085l321.68503 -248.66144l-198.5669 344.97638z" fill-rule="evenodd"/><path stroke="#5b0f00" stroke-width="1.0" stroke-linejoin="round" stroke-linecap="butt" d="m487.30203 564.43085l321.68503 -248.66144l-198.5669 344.97638z" fill-rule="evenodd"/><path fill="#5b0f00" d="m343.63678 630.184l-37.338562 -391.11813l190.75589 348.91336z" fill-rule="evenodd"/><path stroke="#5b0f00" stroke-width="1.0" stroke-linejoin="round" stroke-linecap="butt" d="m343.63678 630.184l-37.338562 -391.11813l190.75589 348.91336z" fill-rule="evenodd"/><path fill="#5b0f00" d="m413.68558 640.5268l96.53543 -269.0394l52.944885 279.62204z" fill-rule="evenodd"/><path stroke="#5b0f00" stroke-width="1.0" stroke-linejoin="round" stroke-linecap="butt" d="m413.68558 640.5268l96.53543 -269.0394l52.944885 279.62204z" fill-rule="evenodd"/><path fill="#5b0f00" d="m308.13486 432.70758l294.26773 0l0 223.21259l-294.26773 0z" fill-rule="evenodd"/><path fill="#666666" d="m351.6263 413.71027l0 0c0 -27.649048 18.691223 -50.06299 41.748016 -50.06299l0 0c11.072266 0 21.69104 5.274475 29.520325 14.663086c7.8292847 9.388641 12.227722 22.122375 12.227722 35.399902l0 0c0 27.649017 -18.691223 50.06299 -41.748047 50.06299l0 0c-23.056793 0 -41.748016 -22.41397 -41.748016 -50.06299z" fill-rule="evenodd"/><path fill="#000000" fill-opacity="0.0" d="m380.59543 329.11353l42.299225 49.19684" fill-rule="evenodd"/><path stroke="#000000" stroke-width="4.0" stroke-linejoin="round" stroke-linecap="butt" d="m380.59543 329.11353l42.299225 49.19684" fill-rule="evenodd"/><path fill="#000000" fill-opacity="0.0" d="m375.0422 344.29474l53.417328 36.409454" fill-rule="evenodd"/><path stroke="#000000" stroke-width="4.0" stroke-linejoin="round" stroke-linecap="butt" d="m375.0422 344.29474l53.417328 36.409454" fill-rule="evenodd"/><path fill="#000000" d="m387.95975 413.72452l0 0c0 -16.19455 2.2914429 -29.322845 5.118103 -29.322845l0 0c1.3573914 0 2.6592102 3.0893555 3.619049 8.58847c0.95983887 5.4990845 1.499054 12.9574585 1.499054 20.734375l0 0c0 16.19455 -2.2914429 29.322845 -5.118103 29.322845l0 0c-1.3574219 0 -2.6592102 -3.089386 -3.619049 -8.58847c-0.95983887 -5.499115 -1.499054 -12.957489 -1.499054 -20.734375z" fill-rule="evenodd"/><path stroke="#000000" stroke-width="1.0" stroke-linejoin="round" stroke-linecap="butt" d="m387.95975 413.72452l0 0c0 -16.19455 2.2914429 -29.322845 5.118103 -29.322845l0 0c1.3573914 0 2.6592102 3.0893555 3.619049 8.58847c0.95983887 5.4990845 1.499054 12.9574585 1.499054 20.734375l0 0c0 16.19455 -2.2914429 29.322845 -5.118103 29.322845l0 0c-1.3574219 0 -2.6592102 -3.089386 -3.619049 -8.58847c-0.95983887 -5.499115 -1.499054 -12.957489 -1.499054 -20.734375z" fill-rule="evenodd"/><path fill="#666666" d="m541.0745 412.94928l0 0c0 -27.649048 -18.691223 -50.06302 -41.748016 -50.06302l0 0c-11.072266 0 -21.69104 5.274475 -29.520325 14.663116c-7.8292847 9.388641 -12.227722 22.122345 -12.227722 35.399902l0 0c0 27.649017 18.691254 50.06299 41.748047 50.06299l0 0c23.056793 0 41.748016 -22.41397 41.748016 -50.06299z" fill-rule="evenodd"/><path fill="#000000" fill-opacity="0.0" d="m512.1054 328.35254l-42.299225 49.19684" fill-rule="evenodd"/><path stroke="#000000" stroke-width="4.0" stroke-linejoin="round" stroke-linecap="butt" d="m512.1054 328.35254l-42.299225 49.19684" fill-rule="evenodd"/><path fill="#000000" fill-opacity="0.0" d="m517.6586 343.53375l-53.417328 36.409454" fill-rule="evenodd"/><path stroke="#000000" stroke-width="4.0" stroke-linejoin="round" stroke-linecap="butt" d="m517.6586 343.53375l-53.417328 36.409454" fill-rule="evenodd"/><path fill="#000000" d="m504.7411 412.96353l0 0c0 -16.19458 -2.2914429 -29.322845 -5.118103 -29.322845l0 0c-1.3573914 0 -2.6592102 3.0893555 -3.619049 8.58847c-0.95983887 5.4990845 -1.499054 12.9574585 -1.499054 20.734375l0 0c0 16.19455 2.2914429 29.322815 5.118103 29.322815l0 0c1.3574219 0 2.6592102 -3.0893555 3.619049 -8.58844c0.95983887 -5.499115 1.499054 -12.957489 1.499054 -20.734375z" fill-rule="evenodd"/><path stroke="#000000" stroke-width="1.0" stroke-linejoin="round" stroke-linecap="butt" d="m504.7411 412.96353l0 0c0 -16.19458 -2.2914429 -29.322845 -5.118103 -29.322845l0 0c-1.3573914 0 -2.6592102 3.0893555 -3.619049 8.58847c-0.95983887 5.4990845 -1.499054 12.9574585 -1.499054 20.734375l0 0c0 16.19455 2.2914429 29.322815 5.118103 29.322815l0 0c1.3574219 0 2.6592102 -3.0893555 3.619049 -8.58844c0.95983887 -5.499115 1.499054 -12.957489 1.499054 -20.734375z" fill-rule="evenodd"/><path fill="#000000" d="m380.60257 591.62616l22.46457 -89.85828l115.543335 0l22.464539 89.85828z" fill-rule="evenodd"/><path stroke="#000000" stroke-width="1.0" stroke-linejoin="round" stroke-linecap="butt" d="m380.60257 591.62616l22.46457 -89.85828l115.543335 0l22.464539 89.85828z" fill-rule="evenodd"/><path fill="#cfe2f3" d="m389.7407 591.6434l12.015747 -49.19684l12.015778 49.19684z" fill-rule="evenodd"/><path stroke="#000000" stroke-width="1.0" stroke-linejoin="round" stroke-linecap="butt" d="m389.7407 591.6434l12.015747 -49.19684l12.015778 49.19684z" fill-rule="evenodd"/><path fill="#cfe2f3" d="m407.0838 591.6482l12.015747 -33.07086l12.015747 33.07086z" fill-rule="evenodd"/><path stroke="#000000" stroke-width="1.0" stroke-linejoin="round" stroke-linecap="butt" d="m407.0838 591.6482l12.015747 -33.07086l12.015747 33.07086z" fill-rule="evenodd"/><path fill="#cfe2f3" d="m422.99158 591.6434l12.015747 -49.19684l12.015747 49.19684z" fill-rule="evenodd"/><path stroke="#000000" stroke-width="1.0" stroke-linejoin="round" stroke-linecap="butt" d="m422.99158 591.6434l12.015747 -49.19684l12.015747 49.19684z" fill-rule="evenodd"/><path fill="#cfe2f3" d="m442.90372 591.6434l12.015747 -49.19684l12.015747 49.19684z" fill-rule="evenodd"/><path stroke="#000000" stroke-width="1.0" stroke-linejoin="round" stroke-linecap="butt" d="m442.90372 591.6434l12.015747 -49.19684l12.015747 49.19684z" fill-rule="evenodd"/><path fill="#cfe2f3" d="m466.49014 591.6406l6.6647034 -38.04724l10.248688 38.04724z" fill-rule="evenodd"/><path stroke="#000000" stroke-width="1.0" stroke-linejoin="round" stroke-linecap="butt" d="m466.49014 591.6406l6.6647034 -38.04724l10.248688 38.04724z" fill-rule="evenodd"/><path fill="#cfe2f3" d="m478.72647 591.6406l12.015747 -38.04724l12.015747 38.04724z" fill-rule="evenodd"/><path stroke="#000000" stroke-width="1.0" stroke-linejoin="round" stroke-linecap="butt" d="m478.72647 591.6406l12.015747 -38.04724l12.015747 38.04724z" fill-rule="evenodd"/><path fill="#cfe2f3" d="m496.06955 591.6434l12.015747 -49.19684l12.015778 49.19684z" fill-rule="evenodd"/><path stroke="#000000" stroke-width="1.0" stroke-linejoin="round" stroke-linecap="butt" d="m496.06955 591.6434l12.015747 -49.19684l12.015778 49.19684z" fill-rule="evenodd"/><path fill="#cfe2f3" d="m510.25186 591.6434l19.693329 -49.19684l4.338135 49.19684z" fill-rule="evenodd"/><path stroke="#000000" stroke-width="1.0" stroke-linejoin="round" stroke-linecap="butt" d="m510.25186 591.6434l19.693329 -49.19684l4.338135 49.19684z" fill-rule="evenodd"/><path fill="#cfe2f3" d="m534.6847 493.2497l-12.015747 49.19684l-12.015778 -49.19684z" fill-rule="evenodd"/><path stroke="#000000" stroke-width="1.0" stroke-linejoin="round" stroke-linecap="butt" d="m534.6847 493.2497l-12.015747 49.19684l-12.015778 -49.19684z" fill-rule="evenodd"/><path fill="#cfe2f3" d="m517.3416 493.24487l-12.015778 33.07086l-12.015747 -33.07086z" fill-rule="evenodd"/><path stroke="#000000" stroke-width="1.0" stroke-linejoin="round" stroke-linecap="butt" d="m517.3416 493.24487l-12.015778 33.07086l-12.015747 -33.07086z" fill-rule="evenodd"/><path fill="#cfe2f3" d="m501.4338 493.2497l-12.015747 49.19684l-12.015778 -49.19684z" fill-rule="evenodd"/><path stroke="#000000" stroke-width="1.0" stroke-linejoin="round" stroke-linecap="butt" d="m501.4338 493.2497l-12.015747 49.19684l-12.015778 -49.19684z" fill-rule="evenodd"/><path fill="#cfe2f3" d="m477.22574 493.2497l-12.015747 49.19684l-12.015747 -49.19684z" fill-rule="evenodd"/><path stroke="#000000" stroke-width="1.0" stroke-linejoin="round" stroke-linecap="butt" d="m477.22574 493.2497l-12.015747 49.19684l-12.015747 -49.19684z" fill-rule="evenodd"/><path fill="#cfe2f3" d="m457.93524 493.25244l-6.664734 38.04724l-10.248657 -38.04724z" fill-rule="evenodd"/><path stroke="#000000" stroke-width="1.0" stroke-linejoin="round" stroke-linecap="butt" d="m457.93524 493.25244l-6.664734 38.04724l-10.248657 -38.04724z" fill-rule="evenodd"/><path fill="#cfe2f3" d="m445.6989 493.25244l-12.015747 38.04724l-12.015747 -38.04724z" fill-rule="evenodd"/><path stroke="#000000" stroke-width="1.0" stroke-linejoin="round" stroke-linecap="butt" d="m445.6989 493.25244l-12.015747 38.04724l-12.015747 -38.04724z" fill-rule="evenodd"/><path fill="#cfe2f3" d="m428.35583 493.2497l-12.015747 49.19684l-12.015747 -49.19684z" fill-rule="evenodd"/><path stroke="#000000" stroke-width="1.0" stroke-linejoin="round" stroke-linecap="butt" d="m428.35583 493.2497l-12.015747 49.19684l-12.015747 -49.19684z" fill-rule="evenodd"/><path fill="#cfe2f3" d="m411.01273 493.2497l-19.693329 49.19684l-4.3381653 -49.19684z" fill-rule="evenodd"/><path stroke="#000000" stroke-width="1.0" stroke-linejoin="round" stroke-linecap="butt" d="m411.01273 493.2497l-19.693329 49.19684l-4.3381653 -49.19684z" fill-rule="evenodd"/><path fill="#5b0f00" d="m245.59071 587.1816l132.12599 -17.291382l10.929138 85.60632l-132.126 17.29132z" fill-rule="evenodd"/><path stroke="#5b0f00" stroke-width="1.0" stroke-linejoin="round" stroke-linecap="butt" d="m245.59071 587.1816l132.12599 -17.291382l10.929138 85.60632l-132.126 17.29132z" fill-rule="evenodd"/><path fill="#000000" fill-opacity="0.0" d="m604.142 541.2541c13.687866 -11.0252075 30.53717 -17.45819 46.31726 -25.197815c27.730347 -13.600861 53.709656 -36.770233 84.57715 -37.845886c13.21814 -0.46063232 25.822754 6.402893 37.85089 11.903442c13.563416 6.202667 -22.583374 22.817627 -24.18103 37.64618" fill-rule="evenodd"/><path stroke="#000000" stroke-width="4.0" stroke-linejoin="round" stroke-linecap="butt" d="m604.142 541.2541c13.687866 -11.0252075 30.53717 -17.45819 46.31726 -25.197815c27.730347 -13.600861 53.709656 -36.770233 84.57715 -37.845886c13.21814 -0.46063232 25.822754 6.402893 37.85089 11.903442c13.563416 6.202667 -22.583374 22.817627 -24.18103 37.64618" fill-rule="evenodd"/><path fill="#000000" fill-opacity="0.0" d="m774.8586 492.56363c12.7578125 9.65332 12.705566 33.06424 6.0496826 47.612335" fill-rule="evenodd"/><path stroke="#000000" stroke-width="4.0" stroke-linejoin="round" stroke-linecap="butt" d="m774.8586 492.56363c12.7578125 9.65332 12.705566 33.06424 6.0496826 47.612335" fill-rule="evenodd"/><path fill="#000000" fill-opacity="0.0" d="m762.1162 484.48285c17.21936 11.056824 35.65442 21.712402 48.491028 37.64923" fill-rule="evenodd"/><path stroke="#000000" stroke-width="4.0" stroke-linejoin="round" stroke-linecap="butt" d="m762.1162 484.48285c17.21936 11.056824 35.65442 21.712402 48.491028 37.64923" fill-rule="evenodd"/><path fill="#000000" fill-opacity="0.0" d="m775.7624 489.69217c10.70813 -0.967041 25.42517 -6.02536 32.169678 2.3479614" fill-rule="evenodd"/><path stroke="#000000" stroke-width="4.0" stroke-linejoin="round" stroke-linecap="butt" d="m775.7624 489.69217c10.70813 -0.967041 25.42517 -6.02536 32.169678 2.3479614" fill-rule="evenodd"/><path fill="#000000" fill-opacity="0.0" d="m604.142 541.2541c13.687866 -11.0252075 30.53717 -17.45819 46.31726 -25.197815c27.730347 -13.600861 53.709656 -36.770233 84.57715 -37.845886c13.21814 -0.46063232 25.822754 6.402893 37.85089 11.903442c13.563416 6.202667 -22.583374 22.817627 -24.18103 37.64618" fill-rule="evenodd"/><path stroke="#b7b7b7" stroke-width="4.0" stroke-linejoin="round" stroke-linecap="butt" stroke-dasharray="4.0,12.0" d="m604.142 541.2541c13.687866 -11.0252075 30.53717 -17.45819 46.31726 -25.197815c27.730347 -13.600861 53.709656 -36.770233 84.57715 -37.845886c13.21814 -0.46063232 25.822754 6.402893 37.85089 11.903442c13.563416 6.202667 -22.583374 22.817627 -24.18103 37.64618" fill-rule="evenodd"/><path fill="#000000" fill-opacity="0.0" d="m774.8586 492.56363c12.7578125 9.65332 12.705566 33.06424 6.0496826 47.612335" fill-rule="evenodd"/><path stroke="#b7b7b7" stroke-width="4.0" stroke-linejoin="round" stroke-linecap="butt" stroke-dasharray="4.0,12.0" d="m774.8586 492.56363c12.7578125 9.65332 12.705566 33.06424 6.0496826 47.612335" fill-rule="evenodd"/><path fill="#000000" fill-opacity="0.0" d="m762.1162 484.48285c17.21936 11.056824 35.65442 21.712402 48.491028 37.64923" fill-rule="evenodd"/><path stroke="#b7b7b7" stroke-width="4.0" stroke-linejoin="round" stroke-linecap="butt" stroke-dasharray="4.0,12.0" d="m762.1162 484.48285c17.21936 11.056824 35.65442 21.712402 48.491028 37.64923" fill-rule="evenodd"/><path fill="#000000" fill-opacity="0.0" d="m775.7624 489.69217c10.70813 -0.967041 25.42517 -6.02536 32.169678 2.3479614" fill-rule="evenodd"/><path stroke="#b7b7b7" stroke-width="4.0" stroke-linejoin="round" stroke-linecap="butt" stroke-dasharray="4.0,12.0" d="m775.7624 489.69217c10.70813 -0.967041 25.42517 -6.02536 32.169678 2.3479614" fill-rule="evenodd"/><path fill="#000000" fill-opacity="0.0" d="m292.95227 547.59436c-7.51532 -15.888367 -19.87735 -29.021118 -30.70758 -42.864014c-19.031967 -24.326172 -32.31813 -56.501495 -59.63202 -70.921265c-11.696411 -6.1748962 -26.032425 -5.4902344 -39.25554 -5.7810974c-14.9109955 -0.3279724 10.3828125 30.378815 5.3587494 44.421722" fill-rule="evenodd"/><path stroke="#000000" stroke-width="4.0" stroke-linejoin="round" stroke-linecap="butt" d="m292.95227 547.59436c-7.51532 -15.888367 -19.87735 -29.021118 -30.70758 -42.864014c-19.031967 -24.326172 -32.31813 -56.501495 -59.63202 -70.921265c-11.696411 -6.1748962 -26.032425 -5.4902344 -39.25554 -5.7810974c-14.9109955 -0.3279724 10.3828125 30.378815 5.3587494 44.421722" fill-rule="evenodd"/><path fill="#000000" fill-opacity="0.0" d="m160.51529 429.3739c-15.689606 3.1289368 -25.844757 24.222961 -26.193893 40.217712" fill-rule="evenodd"/><path stroke="#000000" stroke-width="4.0" stroke-linejoin="round" stroke-linecap="butt" d="m160.51529 429.3739c-15.689606 3.1289368 -25.844757 24.222961 -26.193893 40.217712" fill-rule="evenodd"/><path fill="#000000" fill-opacity="0.0" d="m175.5057 427.6537c-20.316925 2.4478455 -41.553177 4.0047913 -60.05197 12.754883" fill-rule="evenodd"/><path stroke="#000000" stroke-width="4.0" stroke-linejoin="round" stroke-linecap="butt" d="m175.5057 427.6537c-20.316925 2.4478455 -41.553177 4.0047913 -60.05197 12.754883" fill-rule="evenodd"/><path fill="#000000" fill-opacity="0.0" d="m160.95317 426.39557c-9.2165985 -5.5368958 -20.25853 -16.503174 -29.977951 -11.905792" fill-rule="evenodd"/><path stroke="#000000" stroke-width="4.0" stroke-linejoin="round" stroke-linecap="butt" d="m160.95317 426.39557c-9.2165985 -5.5368958 -20.25853 -16.503174 -29.977951 -11.905792" fill-rule="evenodd"/><path fill="#000000" fill-opacity="0.0" d="m292.95227 547.59436c-7.51532 -15.888367 -19.87735 -29.021118 -30.70758 -42.864014c-19.031967 -24.326172 -32.31813 -56.501495 -59.63202 -70.921265c-11.696411 -6.1748962 -26.032425 -5.4902344 -39.25554 -5.7810974c-14.9109955 -0.3279724 10.3828125 30.378815 5.3587494 44.421722" fill-rule="evenodd"/><path stroke="#b7b7b7" stroke-width="4.0" stroke-linejoin="round" stroke-linecap="butt" stroke-dasharray="4.0,12.0" d="m292.95227 547.59436c-7.51532 -15.888367 -19.87735 -29.021118 -30.70758 -42.864014c-19.031967 -24.326172 -32.31813 -56.501495 -59.63202 -70.921265c-11.696411 -6.1748962 -26.032425 -5.4902344 -39.25554 -5.7810974c-14.9109955 -0.3279724 10.3828125 30.378815 5.3587494 44.421722" fill-rule="evenodd"/><path fill="#000000" fill-opacity="0.0" d="m160.51529 429.3739c-15.689606 3.1289368 -25.844757 24.222961 -26.193893 40.217712" fill-rule="evenodd"/><path stroke="#b7b7b7" stroke-width="4.0" stroke-linejoin="round" stroke-linecap="butt" stroke-dasharray="4.0,12.0" d="m160.51529 429.3739c-15.689606 3.1289368 -25.844757 24.222961 -26.193893 40.217712" fill-rule="evenodd"/><path fill="#000000" fill-opacity="0.0" d="m175.5057 427.6537c-20.316925 2.4478455 -41.553177 4.0047913 -60.05197 12.754883" fill-rule="evenodd"/><path stroke="#b7b7b7" stroke-width="4.0" stroke-linejoin="round" stroke-linecap="butt" stroke-dasharray="4.0,12.0" d="m175.5057 427.6537c-20.316925 2.4478455 -41.553177 4.0047913 -60.05197 12.754883" fill-rule="evenodd"/><path fill="#000000" fill-opacity="0.0" d="m160.95317 426.39557c-9.2165985 -5.5368958 -20.25853 -16.503174 -29.977951 -11.905792" fill-rule="evenodd"/><path stroke="#b7b7b7" stroke-width="4.0" stroke-linejoin="round" stroke-linecap="butt" stroke-dasharray="4.0,12.0" d="m160.95317 426.39557c-9.2165985 -5.5368958 -20.25853 -16.503174 -29.977951 -11.905792" fill-rule="evenodd"/></g></svg>