<svg version="1.1" viewBox="0.0 0.0 498.37007874015745 595.2362204724409" fill="none" stroke="none" stroke-linecap="square" stroke-miterlimit="10" xmlns:xlink="http://www.w3.org/1999/xlink" xmlns="http://www.w3.org/2000/svg"><clipPath id="p.0"><path d="m0 0l498.3701 0l0 595.2362l-498.3701 0l0 -595.2362z" clip-rule="nonzero"/></clipPath><g clip-path="url(#p.0)"><path fill="#000000" fill-opacity="0.0" d="m0 0l498.3701 0l0 595.2362l-498.3701 0z" fill-rule="evenodd"/><path fill="#b7b7b7" d="m306.1804 227.83105l0 0c-0.3053589 -2.6584473 1.6023254 -5.0603333 4.2608643 -5.364746l19.254395 -2.2046967l0 0c1.2767029 -0.14619446 2.5593262 0.2207489 3.5657654 1.0200958c1.0064392 0.7993469 1.6542358 1.965622 1.8008728 3.2422638l13.382446 116.51463c0.30532837 2.6584473 -1.6023254 5.0603333 -4.260895 5.364746l-19.254395 2.2046814c-2.6585388 0.30441284 -5.0612793 -1.6039124 -5.3666077 -4.2623596z" fill-rule="evenodd"/><path stroke="#3d85c6" stroke-width="4.0" stroke-linejoin="round" stroke-linecap="butt" d="m306.1804 227.83105l0 0c-0.3053589 -2.6584473 1.6023254 -5.0603333 4.2608643 -5.364746l19.254395 -2.2046967l0 0c1.2767029 -0.14619446 2.5593262 0.2207489 3.5657654 1.0200958c1.0064392 0.7993469 1.6542358 1.965622 1.8008728 3.2422638l13.382446 116.51463c0.30532837 2.6584473 -1.6023254 5.0603333 -4.260895 5.364746l-19.254395 2.2046814c-2.6585388 0.30441284 -5.0612793 -1.6039124 -5.3666077 -4.2623596z" fill-rule="evenodd"/><path fill="#ffffff" d="m125.31233 114.66404l0 0c0 -50.357933 40.82318 -91.1811 91.18111 -91.1811l0 0c24.182724 0 47.375 9.606554 64.47476 26.706327c17.099792 17.099773 26.70633 40.29204 26.70633 64.47478l0 0c0 50.357933 -40.82315 91.1811 -91.18109 91.1811l0 0c-50.357925 0 -91.18111 -40.823166 -91.18111 -91.1811z" fill-rule="evenodd"/><path stroke="#4a86e8" stroke-width="4.0" stroke-linejoin="round" stroke-linecap="butt" d="m125.31233 114.66404l0 0c0 -50.357933 40.82318 -91.1811 91.18111 -91.1811l0 0c24.182724 0 47.375 9.606554 64.47476 26.706327c17.099792 17.099773 26.70633 40.29204 26.70633 64.47478l0 0c0 50.357933 -40.82315 91.1811 -91.18109 91.1811l0 0c-50.357925 0 -91.18111 -40.823166 -91.18111 -91.1811z" fill-rule="evenodd"/><path fill="#000000" d="m131.87927 132.60104l0 0c0 -40.45159 32.665573 -73.24409 72.96062 -73.24409l0 0c19.350372 0 37.908188 7.7167664 51.590958 21.452698c13.68277 13.735931 21.36969 32.365852 21.36969 51.79139l0 0c0 40.4516 -32.665604 73.244095 -72.96065 73.244095l0 0c-40.295044 0 -72.96062 -32.792496 -72.96062 -73.244095z" fill-rule="evenodd"/><path stroke="#4a86e8" stroke-width="4.0" stroke-linejoin="round" stroke-linecap="butt" d="m131.87927 132.60104l0 0c0 -40.45159 32.665573 -73.24409 72.96062 -73.24409l0 0c19.350372 0 37.908188 7.7167664 51.590958 21.452698c13.68277 13.735931 21.36969 32.365852 21.36969 51.79139l0 0c0 40.4516 -32.665604 73.244095 -72.96065 73.244095l0 0c-40.295044 0 -72.96062 -32.792496 -72.96062 -73.244095z" fill-rule="evenodd"/><path fill="#ffffff" d="m150.28522 237.59335l0 0c-1.1388702 -14.916153 10.029968 -27.929382 24.946304 -29.065872l108.03041 -8.230896l0 0c7.163086 -0.54574585 14.2500305 1.7763367 19.701813 6.455414c5.451782 4.6790924 8.821808 11.331909 9.368713 18.494888l9.797028 128.31454c1.1388855 14.916168 -10.029968 27.929382 -24.94629 29.065857l-108.030426 8.230896c-14.916336 1.1364746 -27.931656 -10.034149 -29.070526 -24.950287z" fill-rule="evenodd"/><path stroke="#4a86e8" stroke-width="4.0" stroke-linejoin="round" stroke-linecap="butt" d="m150.28522 237.59335l0 0c-1.1388702 -14.916153 10.029968 -27.929382 24.946304 -29.065872l108.03041 -8.230896l0 0c7.163086 -0.54574585 14.2500305 1.7763367 19.701813 6.455414c5.451782 4.6790924 8.821808 11.331909 9.368713 18.494888l9.797028 128.31454c1.1388855 14.916168 -10.029968 27.929382 -24.94629 29.065857l-108.030426 8.230896c-14.916336 1.1364746 -27.931656 -10.034149 -29.070526 -24.950287z" fill-rule="evenodd"/><path fill="#ffffff" d="m293.3376 232.92831l0 0c3.419983 -3.9293365 9.377014 -4.341385 13.30542 -0.9203491l28.451141 24.776672l0 0c1.8865051 1.6428223 3.0433044 3.9679565 3.2159424 6.4638977c0.17263794 2.4959412 -0.65301514 4.958191 -2.2953491 6.8451233l-57.189972 65.70764c-3.419983 3.9293213 -9.377014 4.3413696 -13.30542 0.9203186l-28.451157 -24.776642c-3.9284058 -3.421051 -4.340561 -9.3797 -0.920578 -13.309021z" fill-rule="evenodd"/><path stroke="#3d85c6" stroke-width="4.0" stroke-linejoin="round" stroke-linecap="butt" d="m293.3376 232.92831l0 0c3.419983 -3.9293365 9.377014 -4.341385 13.30542 -0.9203491l28.451141 24.776672l0 0c1.8865051 1.6428223 3.0433044 3.9679565 3.2159424 6.4638977c0.17263794 2.4959412 -0.65301514 4.958191 -2.2953491 6.8451233l-57.189972 65.70764c-3.419983 3.9293213 -9.377014 4.3413696 -13.30542 0.9203186l-28.451157 -24.776642c-3.9284058 -3.421051 -4.340561 -9.3797 -0.920578 -13.309021z" fill-rule="evenodd"/><path fill="#ffffff" d="m144.08963 232.92734l0 0c3.4205933 -3.9288025 9.378143 -4.3404083 13.306549 -0.91937256l28.451157 24.776672l0 0c1.8864746 1.6428223 3.043167 3.967865 3.2156067 6.463623c0.17243958 2.4957275 -0.6535187 4.9577637 -2.2961426 6.8444214l-59.26647 68.07178c-3.420601 3.9288025 -9.378136 4.3404236 -13.306541 0.91937256l-28.451157 -24.776642c-3.9284058 -3.421051 -4.340065 -9.379272 -0.91947174 -13.308075z" fill-rule="evenodd"/><path stroke="#3d85c6" stroke-width="4.0" stroke-linejoin="round" stroke-linecap="butt" d="m144.08963 232.92734l0 0c3.4205933 -3.9288025 9.378143 -4.3404083 13.306549 -0.91937256l28.451157 24.776672l0 0c1.8864746 1.6428223 3.043167 3.967865 3.2156067 6.463623c0.17243958 2.4957275 -0.6535187 4.9577637 -2.2961426 6.8444214l-59.26647 68.07178c-3.420601 3.9288025 -9.378136 4.3404236 -13.306541 0.91937256l-28.451157 -24.776642c-3.9284058 -3.421051 -4.340065 -9.379272 -0.91947174 -13.308075z" fill-rule="evenodd"/><path fill="#ffffff" d="m169.23883 335.02853l0 0c-1.446701 -4.0066833 0.62931824 -8.425476 4.636917 -9.869659l76.38486 -27.526062c1.9245148 -0.6935425 4.0461884 -0.5942993 5.8982697 0.27581787c1.8520813 0.8701477 3.2828674 2.439911 3.9776 4.363983l10.47757 29.018097c1.4467163 4.0066833 -0.629303 8.425476 -4.636902 9.869659l-76.38487 27.526062c-4.0075836 1.4441833 -8.429153 -0.6331482 -9.8758545 -4.6398315z" fill-rule="evenodd"/><path stroke="#3d85c6" stroke-width="4.0" stroke-linejoin="round" stroke-linecap="butt" d="m169.23883 335.02853l0 0c-1.446701 -4.0066833 0.62931824 -8.425476 4.636917 -9.869659l76.38486 -27.526062c1.9245148 -0.6935425 4.0461884 -0.5942993 5.8982697 0.27581787c1.8520813 0.8701477 3.2828674 2.439911 3.9776 4.363983l10.47757 29.018097c1.4467163 4.0066833 -0.629303 8.425476 -4.636902 9.869659l-76.38487 27.526062c-4.0075836 1.4441833 -8.429153 -0.6331482 -9.8758545 -4.6398315z" fill-rule="evenodd"/><path fill="#ffffff" d="m24.637873 333.70273l0 0c-1.4495945 -4.01828 0.63313866 -8.449768 4.6519165 -9.897949l76.34436 -27.511505c1.9298859 -0.6954346 4.0572586 -0.5958557 5.9141235 0.27685547c1.8568649 0.87268066 3.2911224 2.4470215 3.987236 4.3766785l10.498589 29.102081c1.4495926 4.01828 -0.63314056 8.449738 -4.6519165 9.897949l-76.34436 27.511475c-4.0187798 1.4482117 -8.451771 -0.6352539 -9.901367 -4.653534z" fill-rule="evenodd"/><path stroke="#3d85c6" stroke-width="4.0" stroke-linejoin="round" stroke-linecap="butt" d="m24.637873 333.70273l0 0c-1.4495945 -4.01828 0.63313866 -8.449768 4.6519165 -9.897949l76.34436 -27.511505c1.9298859 -0.6954346 4.0572586 -0.5958557 5.9141235 0.27685547c1.8568649 0.87268066 3.2911224 2.4470215 3.987236 4.3766785l10.498589 29.102081c1.4495926 4.01828 -0.63314056 8.449738 -4.6519165 9.897949l-76.34436 27.511475c-4.0187798 1.4482117 -8.451771 -0.6352539 -9.901367 -4.653534z" fill-rule="evenodd"/><path fill="#ffffff" d="m177.30287 396.69745l0 0c-1.002182 -4.441101 1.7859802 -8.852173 6.227539 -9.852386l32.167664 -7.244049l0 0c2.132904 -0.48031616 4.369644 -0.09375 6.2181396 1.074646c1.8485107 1.1684265 3.157364 3.0229492 3.638626 5.15567l23.016449 101.99603c1.002182 4.441101 -1.7859955 8.852173 -6.2275543 9.852417l-32.16765 7.2440186c-4.441559 1.0002136 -8.854584 -1.7891846 -9.856766 -6.230316z" fill-rule="evenodd"/><path stroke="#3d85c6" stroke-width="4.0" stroke-linejoin="round" stroke-linecap="butt" d="m177.30287 396.69745l0 0c-1.002182 -4.441101 1.7859802 -8.852173 6.227539 -9.852386l32.167664 -7.244049l0 0c2.132904 -0.48031616 4.369644 -0.09375 6.2181396 1.074646c1.8485107 1.1684265 3.157364 3.0229492 3.638626 5.15567l23.016449 101.99603c1.002182 4.441101 -1.7859955 8.852173 -6.2275543 9.852417l-32.16765 7.2440186c-4.441559 1.0002136 -8.854584 -1.7891846 -9.856766 -6.230316z" fill-rule="evenodd"/><path fill="#ffffff" d="m241.0782 396.9808l0 0c-1.4437103 -4.316925 0.8854523 -8.986908 5.202347 -10.430725l31.26477 -10.4565735l0 0c2.073059 -0.69332886 4.336609 -0.5347595 6.292694 0.44085693c1.9561157 0.97561646 3.444519 2.688324 4.1378174 4.761383l33.165558 99.1702c1.4437256 4.316925 -0.8854675 8.986908 -5.202362 10.430695l-31.26477 10.456604c-4.3168945 1.4437866 -8.986786 -0.88534546 -10.430511 -5.2022705z" fill-rule="evenodd"/><path stroke="#3d85c6" stroke-width="4.0" stroke-linejoin="round" stroke-linecap="butt" d="m241.0782 396.9808l0 0c-1.4437103 -4.316925 0.8854523 -8.986908 5.202347 -10.430725l31.26477 -10.4565735l0 0c2.073059 -0.69332886 4.336609 -0.5347595 6.292694 0.44085693c1.9561157 0.97561646 3.444519 2.688324 4.1378174 4.761383l33.165558 99.1702c1.4437256 4.316925 -0.8854675 8.986908 -5.202362 10.430695l-31.26477 10.456604c-4.3168945 1.4437866 -8.986786 -0.88534546 -10.430511 -5.2022705z" fill-rule="evenodd"/><path fill="#000000" fill-opacity="0.0" d="m348.37543 377.05624c24.046478 -7.855591 59.723236 -8.656647 73.600525 15.950531c2.660431 4.7174377 0.5626526 14.234375 -3.8544617 16.407776c-3.3370056 1.6419678 -11.023254 -1.4089661 -10.5677185 2.846283c0.43637085 4.075989 5.2545166 5.3804016 7.5668945 8.436462c5.210602 6.8863525 9.055206 15.341919 11.692749 24.05429c1.2652893 4.1795654 2.313507 9.812866 0.023590088 13.324829c-1.75354 2.689331 -9.137085 2.0608215 -7.5429688 4.8862305c9.985413 17.69815 32.209656 29.113739 33.100616 50.39203c0.32836914 7.842041 -14.135773 -0.9873047 -19.62912 3.3823853c-1.8530273 1.473999 -0.25357056 5.2943115 -0.20135498 7.9420776c0.103393555 5.243164 0.7394409 14.465393 -3.641327 15.128174c-5.4077454 0.81817627 -8.693146 -8.700928 -14.040894 -9.956665c-6.0302124 -1.4159546 -13.338409 6.6069946 -18.334503 2.3544312c-5.213684 -4.437744 -9.420532 -10.345825 -14.266205 -15.33728c-5.876404 -6.0531616 -9.61618 -14.700623 -12.987335 -23.026337c-0.7107239 -1.75531 1.8504333 -5.994568 3.0126038 -4.6203003c1.1621704 1.3742371 -1.5868835 5.582947 -3.0126038 4.6203003c-3.7175293 -2.5101013 -2.8188782 -9.591187 -4.3389893 -14.338165c-2.567566 -8.017914 -6.193451 -16.68216 -4.7917175 -25.097687c0.14233398 -0.8545227 2.768036 0.022094727 2.1585999 0.50686646c-3.8178406 3.0369263 -9.0364685 -5.341736 -10.591644 -10.47641c-2.8867798 -9.53125 -6.564728 -19.324738 -6.308014 -29.449524c0.08895874 -3.5098572 2.2739563 -7.5904236 0.6286926 -10.5078125c-1.1543884 -2.046997 -3.5309448 5.621765 -5.1712036 4.113434c-1.6907349 -1.5547485 -2.0641785 -4.632843 -2.1703796 -7.169281c-0.39944458 -9.539581 6.2285767 -20.819519 13.983368 -23.352905" fill-rule="evenodd"/><path stroke="#efefef" stroke-width="4.0" stroke-linejoin="round" stroke-linecap="butt" d="m348.37543 377.05624c24.046478 -7.855591 59.723236 -8.656647 73.600525 15.950531c2.660431 4.7174377 0.5626526 14.234375 -3.8544617 16.407776c-3.3370056 1.6419678 -11.023254 -1.4089661 -10.5677185 2.846283c0.43637085 4.075989 5.2545166 5.3804016 7.5668945 8.436462c5.210602 6.8863525 9.055206 15.341919 11.692749 24.05429c1.2652893 4.1795654 2.313507 9.812866 0.023590088 13.324829c-1.75354 2.689331 -9.137085 2.0608215 -7.5429688 4.8862305c9.985413 17.69815 32.209656 29.113739 33.100616 50.39203c0.32836914 7.842041 -14.135773 -0.9873047 -19.62912 3.3823853c-1.8530273 1.473999 -0.25357056 5.2943115 -0.20135498 7.9420776c0.103393555 5.243164 0.7394409 14.465393 -3.641327 15.128174c-5.4077454 0.81817627 -8.693146 -8.700928 -14.040894 -9.956665c-6.0302124 -1.4159546 -13.338409 6.6069946 -18.334503 2.3544312c-5.213684 -4.437744 -9.420532 -10.345825 -14.266205 -15.33728c-5.876404 -6.0531616 -9.61618 -14.700623 -12.987335 -23.026337c-0.7107239 -1.75531 1.8504333 -5.994568 3.0126038 -4.6203003c1.1621704 1.3742371 -1.5868835 5.582947 -3.0126038 4.6203003c-3.7175293 -2.5101013 -2.8188782 -9.591187 -4.3389893 -14.338165c-2.567566 -8.017914 -6.193451 -16.68216 -4.7917175 -25.097687c0.14233398 -0.8545227 2.768036 0.022094727 2.1585999 0.50686646c-3.8178406 3.0369263 -9.0364685 -5.341736 -10.591644 -10.47641c-2.8867798 -9.53125 -6.564728 -19.324738 -6.308014 -29.449524c0.08895874 -3.5098572 2.2739563 -7.5904236 0.6286926 -10.5078125c-1.1543884 -2.046997 -3.5309448 5.621765 -5.1712036 4.113434c-1.6907349 -1.5547485 -2.0641785 -4.632843 -2.1703796 -7.169281c-0.39944458 -9.539581 6.2285767 -20.819519 13.983368 -23.352905" fill-rule="evenodd"/><path fill="#000000" fill-opacity="0.0" d="m344.134 372.93423c24.666443 -4.3461304 60.15927 -0.018981934 71.43094 26.402557c2.1609192 5.065277 -0.8890686 14.212128 -5.4943542 15.735596c-3.479126 1.1509094 -10.797943 -2.9814758 -10.778534 1.3083496c0.018615723 4.109131 4.668274 6.095886 6.6526794 9.461853c4.4715576 7.5846252 7.4276733 16.530975 9.159607 25.55899c0.83084106 4.330963 1.2984009 10.073975 -1.3316345 13.2317505c-2.013977 2.4180908 -9.278687 0.7340088 -7.983734 3.7678528c8.111359 19.003723 29.009369 33.52762 27.729828 54.779785c-0.47155762 7.8324585 -13.930176 -3.0097656 -19.827057 0.5396118c-1.9891052 1.1972656 -0.7900696 5.2195435 -1.0075073 7.855652c-0.430542 5.2200317 -0.73709106 14.466797 -5.152649 14.495789c-5.450714 0.035827637 -7.7436523 -9.886047 -12.92392 -11.900513c-5.8413696 -2.2715454 -13.911072 4.644043 -18.437561 -0.29504395c-4.7236023 -5.154236 -8.298309 -11.623535 -12.600342 -17.274597c-5.2171326 -6.8530884 -8.049713 -15.974915 -10.549103 -24.724365c-0.526947 -1.8446655 2.4462585 -5.6855164 3.4600525 -4.1543274c1.0137634 1.531189 -2.1428528 5.314728 -3.4600525 4.1543274c-3.4346313 -3.0256958 -1.8225403 -9.926483 -2.8486328 -14.857361c-1.7330933 -8.328522 -4.450897 -17.450653 -2.203827 -25.604004c0.22817993 -0.82788086 2.7452087 0.41937256 2.0910034 0.81314087c-4.0982666 2.4667664 -8.426025 -6.600525 -9.447479 -11.921326c-1.8960266 -9.876709 -4.5506897 -20.12738 -3.2662659 -30.142029c0.44522095 -3.4716492 3.0289612 -7.2089844 1.6925964 -10.341492c-0.9376526 -2.1979065 -4.0763855 5.074127 -5.551056 3.3411865c-1.52005 -1.7862549 -1.5776978 -4.8956604 -1.4251709 -7.429016c0.5736389 -9.527863 8.299469 -19.774506 16.25418 -21.176086" fill-rule="evenodd"/><path stroke="#cccccc" stroke-width="4.0" stroke-linejoin="round" stroke-linecap="butt" d="m344.134 372.93423c24.666443 -4.3461304 60.15927 -0.018981934 71.43094 26.402557c2.1609192 5.065277 -0.8890686 14.212128 -5.4943542 15.735596c-3.479126 1.1509094 -10.797943 -2.9814758 -10.778534 1.3083496c0.018615723 4.109131 4.668274 6.095886 6.6526794 9.461853c4.4715576 7.5846252 7.4276733 16.530975 9.159607 25.55899c0.83084106 4.330963 1.2984009 10.073975 -1.3316345 13.2317505c-2.013977 2.4180908 -9.278687 0.7340088 -7.983734 3.7678528c8.111359 19.003723 29.009369 33.52762 27.729828 54.779785c-0.47155762 7.8324585 -13.930176 -3.0097656 -19.827057 0.5396118c-1.9891052 1.1972656 -0.7900696 5.2195435 -1.0075073 7.855652c-0.430542 5.2200317 -0.73709106 14.466797 -5.152649 14.495789c-5.450714 0.035827637 -7.7436523 -9.886047 -12.92392 -11.900513c-5.8413696 -2.2715454 -13.911072 4.644043 -18.437561 -0.29504395c-4.7236023 -5.154236 -8.298309 -11.623535 -12.600342 -17.274597c-5.2171326 -6.8530884 -8.049713 -15.974915 -10.549103 -24.724365c-0.526947 -1.8446655 2.4462585 -5.6855164 3.4600525 -4.1543274c1.0137634 1.531189 -2.1428528 5.314728 -3.4600525 4.1543274c-3.4346313 -3.0256958 -1.8225403 -9.926483 -2.8486328 -14.857361c-1.7330933 -8.328522 -4.450897 -17.450653 -2.203827 -25.604004c0.22817993 -0.82788086 2.7452087 0.41937256 2.0910034 0.81314087c-4.0982666 2.4667664 -8.426025 -6.600525 -9.447479 -11.921326c-1.8960266 -9.876709 -4.5506897 -20.12738 -3.2662659 -30.142029c0.44522095 -3.4716492 3.0289612 -7.2089844 1.6925964 -10.341492c-0.9376526 -2.1979065 -4.0763855 5.074127 -5.551056 3.3411865c-1.52005 -1.7862549 -1.5776978 -4.8956604 -1.4251709 -7.429016c0.5736389 -9.527863 8.299469 -19.774506 16.25418 -21.176086" fill-rule="evenodd"/><path fill="#000000" fill-opacity="0.0" d="m342.95483 373.59607c24.886353 -1.9125061 59.95993 5.8795776 69.35675 33.314117c1.8014832 5.2594604 -1.8743591 14.075378 -6.5701904 15.141998c-3.547577 0.80578613 -10.554626 -4.0298157 -10.833588 0.24697876c-0.2671814 4.0966187 4.228821 6.5323486 5.9725647 10.081116c3.9292297 7.9966125 6.2533875 17.2016 7.351776 26.36792c0.5269165 4.3973694 0.5935669 10.166168 -2.2472534 13.055054c-2.175415 2.2121887 -9.298767 -0.17828369 -8.219116 2.9719238c6.7628784 19.732758 26.581268 36.255005 23.828217 57.307648c-1.0146179 7.75885 -13.674469 -4.3651123 -19.798462 -1.406311c-2.0657349 0.9980469 -1.1503601 5.1238403 -1.5503845 7.729431c-0.79211426 5.159607 -1.7406006 14.344116 -6.1434326 13.940063c-5.435028 -0.49871826 -7.0303955 -10.61084 -12.053314 -13.126221c-5.66391 -2.8363647 -14.187592 3.263916 -18.35553 -2.1017456c-4.349457 -5.599365 -7.4624023 -12.3966675 -11.357147 -18.449768c-4.723175 -7.3407288 -6.912018 -16.708466 -8.794678 -25.672485c-0.39694214 -1.8898926 2.8334656 -5.425812 3.7373657 -3.8005676c0.90393066 1.6252136 -2.505249 5.0860596 -3.7373657 3.8005676c-3.2127686 -3.3518982 -1.1262207 -10.070557 -1.8059998 -15.084839c-1.1481934 -8.469391 -3.2226257 -17.826202 -0.41610718 -25.730774c0.28500366 -0.8026428 2.7068787 0.68707275 2.0274963 1.0153198c-4.256134 2.0563354 -7.938965 -7.403656 -8.587006 -12.806061c-1.2029419 -10.028168 -3.1359558 -20.503357 -1.1594543 -30.357178c0.68518066 -3.415863 3.5201416 -6.886841 2.406067 -10.139435c-0.78167725 -2.2821655 -4.415619 4.6567383 -5.764862 2.7852783c-1.3907776 -1.9290771 -1.2320251 -5.0332947 -0.9038391 -7.5428467c1.2342529 -9.438416 9.64679 -18.891815 17.672455 -19.508575" fill-rule="evenodd"/><path stroke="#f3f3f3" stroke-width="4.0" stroke-linejoin="round" stroke-linecap="butt" d="m342.95483 373.59607c24.886353 -1.9125061 59.95993 5.8795776 69.35675 33.314117c1.8014832 5.2594604 -1.8743591 14.075378 -6.5701904 15.141998c-3.547577 0.80578613 -10.554626 -4.0298157 -10.833588 0.24697876c-0.2671814 4.0966187 4.228821 6.5323486 5.9725647 10.081116c3.9292297 7.9966125 6.2533875 17.2016 7.351776 26.36792c0.5269165 4.3973694 0.5935669 10.166168 -2.2472534 13.055054c-2.175415 2.2121887 -9.298767 -0.17828369 -8.219116 2.9719238c6.7628784 19.732758 26.581268 36.255005 23.828217 57.307648c-1.0146179 7.75885 -13.674469 -4.3651123 -19.798462 -1.406311c-2.0657349 0.9980469 -1.1503601 5.1238403 -1.5503845 7.729431c-0.79211426 5.159607 -1.7406006 14.344116 -6.1434326 13.940063c-5.435028 -0.49871826 -7.0303955 -10.61084 -12.053314 -13.126221c-5.66391 -2.8363647 -14.187592 3.263916 -18.35553 -2.1017456c-4.349457 -5.599365 -7.4624023 -12.3966675 -11.357147 -18.449768c-4.723175 -7.3407288 -6.912018 -16.708466 -8.794678 -25.672485c-0.39694214 -1.8898926 2.8334656 -5.425812 3.7373657 -3.8005676c0.90393066 1.6252136 -2.505249 5.0860596 -3.7373657 3.8005676c-3.2127686 -3.3518982 -1.1262207 -10.070557 -1.8059998 -15.084839c-1.1481934 -8.469391 -3.2226257 -17.826202 -0.41610718 -25.730774c0.28500366 -0.8026428 2.7068787 0.68707275 2.0274963 1.0153198c-4.256134 2.0563354 -7.938965 -7.403656 -8.587006 -12.806061c-1.2029419 -10.028168 -3.1359558 -20.503357 -1.1594543 -30.357178c0.68518066 -3.415863 3.5201416 -6.886841 2.406067 -10.139435c-0.78167725 -2.2821655 -4.415619 4.6567383 -5.764862 2.7852783c-1.3907776 -1.9290771 -1.2320251 -5.0332947 -0.9038391 -7.5428467c1.2342529 -9.438416 9.64679 -18.891815 17.672455 -19.508575" fill-rule="evenodd"/><path fill="#000000" fill-opacity="0.0" d="m339.31332 375.50406c23.74524 -7.970337 59.48758 -8.976135 74.566895 15.47229c2.8908386 4.6870117 1.2363281 14.185913 -3.090973 16.378082c-3.2691345 1.6561279 -11.121704 -1.3404541 -10.463959 2.8986206c0.6300659 4.0605164 5.523773 5.332794 7.987152 8.365723c5.550812 6.834198 9.805786 15.240601 12.862305 23.909973c1.4663086 4.158966 2.7835083 9.7682495 0.652771 13.28241c-1.6316223 2.6909485 -9.066254 2.1073303 -7.3341064 4.9145203c10.849945 17.583923 33.67755 28.834167 35.575714 50.039734c0.69955444 7.815216 -14.223328 -0.9020386 -19.526306 3.4856873c-1.7887878 1.4800415 -0.004333496 5.2789307 0.17303467 7.91803c0.35125732 5.22583 1.4245605 14.4151 -2.9375916 15.101257c-5.384796 0.84698486 -9.12915 -8.622803 -14.551697 -9.843506c-6.1145325 -1.3764038 -13.0651245 6.663513 -18.276459 2.4534912c-5.438324 -4.3933716 -9.936279 -10.25824 -15.031647 -15.205688c-6.1792297 -5.999817 -10.338135 -14.5980835 -14.112152 -22.877777c-0.7956543 -1.7456055 1.5727844 -5.9862976 2.8031921 -4.6231384c1.2304382 1.3631287 -1.3278809 5.574463 -2.8031921 4.6231384c-3.8468018 -2.4805603 -3.2798767 -9.544342 -5.0285034 -14.267426c-2.9535522 -7.977539 -6.9990234 -16.593231 -5.99057 -24.990143c0.102386475 -0.85266113 2.7770996 0.00592041 2.1887817 0.4927063c-3.6855164 3.0494385 -9.31488 -5.272278 -11.116974 -10.381622c-3.3451538 -9.484222 -7.4961243 -19.22522 -7.716736 -29.319366c-0.07644653 -3.4992065 1.9222107 -7.579529 0.13442993 -10.478119c-1.2543945 -2.0337524 -3.2757568 5.6244507 -4.991974 4.130432c-1.769043 -1.539978 -2.28891 -4.60614 -2.5151672 -7.133911c-0.8510132 -9.506958 5.263672 -20.789612 12.921326 -23.359955" fill-rule="evenodd"/><path stroke="#ffffff" stroke-width="4.0" stroke-linejoin="round" stroke-linecap="butt" d="m339.31332 375.50406c23.74524 -7.970337 59.48758 -8.976135 74.566895 15.47229c2.8908386 4.6870117 1.2363281 14.185913 -3.090973 16.378082c-3.2691345 1.6561279 -11.121704 -1.3404541 -10.463959 2.8986206c0.6300659 4.0605164 5.523773 5.332794 7.987152 8.365723c5.550812 6.834198 9.805786 15.240601 12.862305 23.909973c1.4663086 4.158966 2.7835083 9.7682495 0.652771 13.28241c-1.6316223 2.6909485 -9.066254 2.1073303 -7.3341064 4.9145203c10.849945 17.583923 33.67755 28.834167 35.575714 50.039734c0.69955444 7.815216 -14.223328 -0.9020386 -19.526306 3.4856873c-1.7887878 1.4800415 -0.004333496 5.2789307 0.17303467 7.91803c0.35125732 5.22583 1.4245605 14.4151 -2.9375916 15.101257c-5.384796 0.84698486 -9.12915 -8.622803 -14.551697 -9.843506c-6.1145325 -1.3764038 -13.0651245 6.663513 -18.276459 2.4534912c-5.438324 -4.3933716 -9.936279 -10.25824 -15.031647 -15.205688c-6.1792297 -5.999817 -10.338135 -14.5980835 -14.112152 -22.877777c-0.7956543 -1.7456055 1.5727844 -5.9862976 2.8031921 -4.6231384c1.2304382 1.3631287 -1.3278809 5.574463 -2.8031921 4.6231384c-3.8468018 -2.4805603 -3.2798767 -9.544342 -5.0285034 -14.267426c-2.9535522 -7.977539 -6.9990234 -16.593231 -5.99057 -24.990143c0.102386475 -0.85266113 2.7770996 0.00592041 2.1887817 0.4927063c-3.6855164 3.0494385 -9.31488 -5.272278 -11.116974 -10.381622c-3.3451538 -9.484222 -7.4961243 -19.22522 -7.716736 -29.319366c-0.07644653 -3.4992065 1.9222107 -7.579529 0.13442993 -10.478119c-1.2543945 -2.0337524 -3.2757568 5.6244507 -4.991974 4.130432c-1.769043 -1.539978 -2.28891 -4.60614 -2.5151672 -7.133911c-0.8510132 -9.506958 5.263672 -20.789612 12.921326 -23.359955" fill-rule="evenodd"/><path fill="#000000" fill-opacity="0.0" d="m374.14697 393.01312c13.344421 3.33609 12.577423 25.546722 12.577423 39.30185" fill-rule="evenodd"/><path stroke="#ffffff" stroke-width="4.0" stroke-linejoin="round" stroke-linecap="butt" d="m374.14697 393.01312c13.344421 3.33609 12.577423 25.546722 12.577423 39.30185" fill-rule="evenodd"/><path fill="#000000" fill-opacity="0.0" d="m363.14172 418.16534c0 10.545715 3.6039124 28.2966 14.149628 28.2966" fill-rule="evenodd"/><path stroke="#ffffff" stroke-width="4.0" stroke-linejoin="round" stroke-linecap="butt" d="m363.14172 418.16534c0 10.545715 3.6039124 28.2966 14.149628 28.2966" fill-rule="evenodd"/><path fill="#000000" fill-opacity="0.0" d="m363.14172 405.59055c10.569275 3.5231018 17.028107 15.187439 22.010498 25.152222" fill-rule="evenodd"/><path stroke="#ffffff" stroke-width="4.0" stroke-linejoin="round" stroke-linecap="butt" d="m363.14172 405.59055c10.569275 3.5231018 17.028107 15.187439 22.010498 25.152222" fill-rule="evenodd"/><path fill="#000000" fill-opacity="0.0" d="m380.4357 468.47244c5.069397 6.7592163 4.1257935 22.007874 12.574799 22.007874" fill-rule="evenodd"/><path stroke="#ffffff" stroke-width="4.0" stroke-linejoin="round" stroke-linecap="butt" d="m380.4357 468.47244c5.069397 6.7592163 4.1257935 22.007874 12.574799 22.007874" fill-rule="evenodd"/><path fill="#000000" fill-opacity="0.0" d="m367.85828 474.76117c7.002899 10.498474 12.53244 28.29657 25.152222 28.29657" fill-rule="evenodd"/><path stroke="#ffffff" stroke-width="4.0" stroke-linejoin="round" stroke-linecap="butt" d="m367.85828 474.76117c7.002899 10.498474 12.53244 28.29657 25.152222 28.29657" fill-rule="evenodd"/><path fill="#000000" fill-opacity="0.0" d="m388.2966 438.60367c3.4838257 10.451508 -1.5722046 21.996277 -1.5722046 33.013123" fill-rule="evenodd"/><path stroke="#ffffff" stroke-width="4.0" stroke-linejoin="round" stroke-linecap="butt" d="m388.2966 438.60367c3.4838257 10.451508 -1.5722046 21.996277 -1.5722046 33.013123" fill-rule="evenodd"/><path fill="#000000" fill-opacity="0.0" d="m435.4567 423.56955c2.6446533 10.578674 16.220428 16.145996 18.86615 26.724426c1.4497681 5.796631 -5.03006 14.149597 -11.005249 14.149597" fill-rule="evenodd"/><path stroke="#ffffff" stroke-width="4.0" stroke-linejoin="round" stroke-linecap="butt" d="m435.4567 423.56955c2.6446533 10.578674 16.220428 16.145996 18.86615 26.724426c1.4497681 5.796631 -5.03006 14.149597 -11.005249 14.149597" fill-rule="evenodd"/><path fill="#000000" fill-opacity="0.0" d="m333.27298 511.6063c0 9.15152 4.534149 18.681122 11.005249 25.152252" fill-rule="evenodd"/><path stroke="#ffffff" stroke-width="4.0" stroke-linejoin="round" stroke-linecap="butt" d="m333.27298 511.6063c0 9.15152 4.534149 18.681122 11.005249 25.152252" fill-rule="evenodd"/><path fill="#000000" fill-opacity="0.0" d="m298.68765 510.03412c0 10.610596 3.5024414 22.365967 11.005249 29.868774" fill-rule="evenodd"/><path stroke="#ffffff" stroke-width="4.0" stroke-linejoin="round" stroke-linecap="butt" d="m298.68765 510.03412c0 10.610596 3.5024414 22.365967 11.005249 29.868774" fill-rule="evenodd"/><path fill="#000000" fill-opacity="0.0" d="m319.2651 414.1391c0 7.4104614 3.1443481 14.597443 3.1443481 22.007874" fill-rule="evenodd"/><path stroke="#ffffff" stroke-width="4.0" stroke-linejoin="round" stroke-linecap="butt" d="m319.2651 414.1391c0 7.4104614 3.1443481 14.597443 3.1443481 22.007874" fill-rule="evenodd"/><path fill="#000000" fill-opacity="0.0" d="m364.7139 348.11285c12.455627 6.2226257 29.456451 4.301605 39.30185 14.147003" fill-rule="evenodd"/><path stroke="#ffffff" stroke-width="4.0" stroke-linejoin="round" stroke-linecap="butt" d="m364.7139 348.11285c12.455627 6.2226257 29.456451 4.301605 39.30185 14.147003" fill-rule="evenodd"/><path fill="#000000" fill-opacity="0.0" d="m462.1811 480.16534c4.998413 14.986908 15.887756 35.98889 4.7165527 47.160095" fill-rule="evenodd"/><path stroke="#ffffff" stroke-width="4.0" stroke-linejoin="round" stroke-linecap="butt" d="m462.1811 480.16534c4.998413 14.986908 15.887756 35.98889 4.7165527 47.160095" fill-rule="evenodd"/><path fill="#000000" fill-opacity="0.0" d="m361.56955 560.33856c7.15683 7.1568604 18.177948 11.005249 28.299225 11.005249" fill-rule="evenodd"/><path stroke="#ffffff" stroke-width="4.0" stroke-linejoin="round" stroke-linecap="butt" d="m361.56955 560.33856c7.15683 7.1568604 18.177948 11.005249 28.299225 11.005249" fill-rule="evenodd"/><path fill="#000000" fill-opacity="0.0" d="m405.44882 574.6272c4.1460876 -12.438293 33.438385 -13.299072 39.30185 -1.5722046" fill-rule="evenodd"/><path stroke="#ffffff" stroke-width="4.0" stroke-linejoin="round" stroke-linecap="butt" d="m405.44882 574.6272c4.1460876 -12.438293 33.438385 -13.299072 39.30185 -1.5722046" fill-rule="evenodd"/><path fill="#000000" fill-opacity="0.0" d="m459.0363 536.75854c-6.823303 3.413086 -6.286072 14.37854 -6.286072 22.007874" fill-rule="evenodd"/><path stroke="#ffffff" stroke-width="4.0" stroke-linejoin="round" stroke-linecap="butt" d="m459.0363 536.75854c-6.823303 3.413086 -6.286072 14.37854 -6.286072 22.007874" fill-rule="evenodd"/></g></svg>