<svg version="1.1" viewBox="0.0 0.0 960.0 720.0" fill="none" stroke="none" stroke-linecap="square" stroke-miterlimit="10" xmlns:xlink="http://www.w3.org/1999/xlink" xmlns="http://www.w3.org/2000/svg"><clipPath id="p.0"><path d="m0 0l960.0 0l0 720.0l-960.0 0l0 -720.0z" clip-rule="nonzero"/></clipPath><g clip-path="url(#p.0)"><path fill="#000000" fill-opacity="0.0" d="m0 0l960.0 0l0 720.0l-960.0 0z" fill-rule="evenodd"/><path fill="#b7b7b7" d="m584.435 289.14078l0 0c-0.3053589 -2.6584778 1.6022949 -5.0603333 4.2608643 -5.364746l19.254395 -2.204712l0 0c1.2766724 -0.1461792 2.5593262 0.22076416 3.5657349 1.0201111c1.0064697 0.7993469 1.6542358 1.9656067 1.8009033 3.2422485l13.382446 116.51462c0.30529785 2.6584473 -1.602356 5.0603333 -4.2609253 5.364746l-19.254395 2.204712c-2.6585083 0.30441284 -5.0612793 -1.6039124 -5.366577 -4.2623596z" fill-rule="evenodd"/><path stroke="#3d85c6" stroke-width="4.0" stroke-linejoin="round" stroke-linecap="butt" d="m584.435 289.14078l0 0c-0.3053589 -2.6584778 1.6022949 -5.0603333 4.2608643 -5.364746l19.254395 -2.204712l0 0c1.2766724 -0.1461792 2.5593262 0.22076416 3.5657349 1.0201111c1.0064697 0.7993469 1.6542358 1.9656067 1.8009033 3.2422485l13.382446 116.51462c0.30529785 2.6584473 -1.602356 5.0603333 -4.2609253 5.364746l-19.254395 2.204712c-2.6585083 0.30441284 -5.0612793 -1.6039124 -5.366577 -4.2623596z" fill-rule="evenodd"/><path fill="#ffffff" d="m403.56693 175.97375l0 0c0 -50.357933 40.82318 -91.18111 91.18109 -91.18111l0 0c24.18277 0 47.37503 9.606552 64.47476 26.70633c17.099792 17.099777 26.70636 40.292038 26.70636 64.47478l0 0c0 50.357925 -40.82318 91.18109 -91.18112 91.18109l0 0c-50.35791 0 -91.18109 -40.823166 -91.18109 -91.18109z" fill-rule="evenodd"/><path stroke="#4a86e8" stroke-width="4.0" stroke-linejoin="round" stroke-linecap="butt" d="m403.56693 175.97375l0 0c0 -50.357933 40.82318 -91.18111 91.18109 -91.18111l0 0c24.18277 0 47.37503 9.606552 64.47476 26.70633c17.099792 17.099777 26.70636 40.292038 26.70636 64.47478l0 0c0 50.357925 -40.82318 91.18109 -91.18112 91.18109l0 0c-50.35791 0 -91.18109 -40.823166 -91.18109 -91.18109z" fill-rule="evenodd"/><path fill="#000000" d="m410.13385 193.91077l0 0c0 -40.4516 32.66559 -73.2441 72.96063 -73.2441l0 0c19.350372 0 37.908203 7.716774 51.590942 21.452705c13.6828 13.735931 21.36969 32.365845 21.36969 51.791397l0 0c0 40.451584 -32.66559 73.24408 -72.96063 73.24408l0 0c-40.295044 0 -72.96063 -32.792496 -72.96063 -73.24408z" fill-rule="evenodd"/><path stroke="#4a86e8" stroke-width="4.0" stroke-linejoin="round" stroke-linecap="butt" d="m410.13385 193.91077l0 0c0 -40.4516 32.66559 -73.2441 72.96063 -73.2441l0 0c19.350372 0 37.908203 7.716774 51.590942 21.452705c13.6828 13.735931 21.36969 32.365845 21.36969 51.791397l0 0c0 40.451584 -32.66559 73.24408 -72.96063 73.24408l0 0c-40.295044 0 -72.96063 -32.792496 -72.96063 -73.24408z" fill-rule="evenodd"/><path fill="#ffffff" d="m428.5398 298.90305l0 0c-1.138855 -14.916138 10.029968 -27.929382 24.94632 -29.065857l108.030426 -8.230896l0 0c7.163086 -0.54574585 14.25 1.7763367 19.701782 6.455414c5.451782 4.6791077 8.821838 11.331909 9.368713 18.494904l9.797058 128.31454c1.138855 14.916138 -10.029968 27.929382 -24.94629 29.065857l-108.030426 8.230896c-14.916351 1.1364746 -27.931671 -10.034149 -29.070526 -24.950317z" fill-rule="evenodd"/><path stroke="#4a86e8" stroke-width="4.0" stroke-linejoin="round" stroke-linecap="butt" d="m428.5398 298.90305l0 0c-1.138855 -14.916138 10.029968 -27.929382 24.94632 -29.065857l108.030426 -8.230896l0 0c7.163086 -0.54574585 14.25 1.7763367 19.701782 6.455414c5.451782 4.6791077 8.821838 11.331909 9.368713 18.494904l9.797058 128.31454c1.138855 14.916138 -10.029968 27.929382 -24.94629 29.065857l-108.030426 8.230896c-14.916351 1.1364746 -27.931671 -10.034149 -29.070526 -24.950317z" fill-rule="evenodd"/><path fill="#ffffff" d="m571.59216 294.238l0 0c3.419983 -3.9293213 9.377014 -4.3413696 13.30542 -0.9203186l28.451172 24.776642l0 0c1.8864746 1.6428528 3.043274 3.967987 3.2159424 6.463928c0.17260742 2.4959106 -0.65301514 4.958191 -2.2953491 6.8451233l-57.190002 65.70761c-3.419983 3.9293518 -9.377014 4.3414 -13.30542 0.9203491l-28.45111 -24.776642c-3.9284363 -3.421051 -4.340576 -9.3797 -0.92059326 -13.3090515z" fill-rule="evenodd"/><path stroke="#3d85c6" stroke-width="4.0" stroke-linejoin="round" stroke-linecap="butt" d="m571.59216 294.238l0 0c3.419983 -3.9293213 9.377014 -4.3413696 13.30542 -0.9203186l28.451172 24.776642l0 0c1.8864746 1.6428528 3.043274 3.967987 3.2159424 6.463928c0.17260742 2.4959106 -0.65301514 4.958191 -2.2953491 6.8451233l-57.190002 65.70761c-3.419983 3.9293518 -9.377014 4.3414 -13.30542 0.9203491l-28.45111 -24.776642c-3.9284363 -3.421051 -4.340576 -9.3797 -0.92059326 -13.3090515z" fill-rule="evenodd"/><path fill="#ffffff" d="m422.34424 294.23706l0 0c3.4205933 -3.9288025 9.378113 -4.3404236 13.306519 -0.91937256l28.451172 24.776642l0 0c1.8864746 1.6428528 3.0431824 3.9678955 3.2156067 6.463623c0.17242432 2.495758 -0.6535034 4.9577637 -2.2961426 6.844452l-59.26648 68.07178c-3.4205933 3.9288025 -9.378143 4.3404236 -13.306519 0.91937256l-28.451172 -24.776672c-3.9284058 -3.4210205 -4.3400574 -9.379242 -0.9194641 -13.308044z" fill-rule="evenodd"/><path stroke="#3d85c6" stroke-width="4.0" stroke-linejoin="round" stroke-linecap="butt" d="m422.34424 294.23706l0 0c3.4205933 -3.9288025 9.378113 -4.3404236 13.306519 -0.91937256l28.451172 24.776642l0 0c1.8864746 1.6428528 3.0431824 3.9678955 3.2156067 6.463623c0.17242432 2.495758 -0.6535034 4.9577637 -2.2961426 6.844452l-59.26648 68.07178c-3.4205933 3.9288025 -9.378143 4.3404236 -13.306519 0.91937256l-28.451172 -24.776672c-3.9284058 -3.4210205 -4.3400574 -9.379242 -0.9194641 -13.308044z" fill-rule="evenodd"/><path fill="#ffffff" d="m447.49344 396.33823l0 0c-1.4467163 -4.006653 0.629303 -8.425446 4.636902 -9.869629l76.38486 -27.526093c1.9244995 -0.69351196 4.0462036 -0.5942993 5.8982544 0.2758484c1.8521118 0.8701477 3.282898 2.439911 3.9776 4.363983l10.4776 29.018066c1.4467163 4.0066833 -0.6293335 8.425476 -4.636902 9.869659l-76.38489 27.526093c-4.0075684 1.4441833 -8.429169 -0.6331482 -9.8758545 -4.6398315z" fill-rule="evenodd"/><path stroke="#3d85c6" stroke-width="4.0" stroke-linejoin="round" stroke-linecap="butt" d="m447.49344 396.33823l0 0c-1.4467163 -4.006653 0.629303 -8.425446 4.636902 -9.869629l76.38486 -27.526093c1.9244995 -0.69351196 4.0462036 -0.5942993 5.8982544 0.2758484c1.8521118 0.8701477 3.282898 2.439911 3.9776 4.363983l10.4776 29.018066c1.4467163 4.0066833 -0.6293335 8.425476 -4.636902 9.869659l-76.38489 27.526093c-4.0075684 1.4441833 -8.429169 -0.6331482 -9.8758545 -4.6398315z" fill-rule="evenodd"/><path fill="#ffffff" d="m302.89246 395.01242l0 0c-1.449585 -4.01828 0.6331482 -8.449738 4.6519165 -9.897949l76.34436 -27.511475c1.9299011 -0.6954651 4.057251 -0.59588623 5.9141235 0.27682495c1.8568726 0.8727112 3.2911377 2.447052 3.9872437 4.376709l10.498596 29.10205c1.449585 4.01828 -0.6331482 8.449738 -4.6519165 9.897949l-76.34436 27.511505c-4.0187683 1.4481812 -8.451782 -0.6352539 -9.901367 -4.653534z" fill-rule="evenodd"/><path stroke="#3d85c6" stroke-width="4.0" stroke-linejoin="round" stroke-linecap="butt" d="m302.89246 395.01242l0 0c-1.449585 -4.01828 0.6331482 -8.449738 4.6519165 -9.897949l76.34436 -27.511475c1.9299011 -0.6954651 4.057251 -0.59588623 5.9141235 0.27682495c1.8568726 0.8727112 3.2911377 2.447052 3.9872437 4.376709l10.498596 29.10205c1.449585 4.01828 -0.6331482 8.449738 -4.6519165 9.897949l-76.34436 27.511505c-4.0187683 1.4481812 -8.451782 -0.6352539 -9.901367 -4.653534z" fill-rule="evenodd"/><path fill="#ffffff" d="m455.55746 458.00717l0 0c-1.0021973 -4.441101 1.7859802 -8.852203 6.227539 -9.852417l32.167664 -7.2440186l0 0c2.132904 -0.48031616 4.3696594 -0.09375 6.2181396 1.074646c1.8485107 1.168396 3.1573486 3.0229492 3.6386108 5.1556396l23.016449 101.99606c1.0021973 4.441101 -1.7859497 8.852173 -6.227539 9.852417l-32.167664 7.2440186c-4.441559 1.0001831 -8.854584 -1.7891846 -9.8567505 -6.2302856z" fill-rule="evenodd"/><path stroke="#3d85c6" stroke-width="4.0" stroke-linejoin="round" stroke-linecap="butt" d="m455.55746 458.00717l0 0c-1.0021973 -4.441101 1.7859802 -8.852203 6.227539 -9.852417l32.167664 -7.2440186l0 0c2.132904 -0.48031616 4.3696594 -0.09375 6.2181396 1.074646c1.8485107 1.168396 3.1573486 3.0229492 3.6386108 5.1556396l23.016449 101.99606c1.0021973 4.441101 -1.7859497 8.852173 -6.227539 9.852417l-32.167664 7.2440186c-4.441559 1.0001831 -8.854584 -1.7891846 -9.8567505 -6.2302856z" fill-rule="evenodd"/><path fill="#ffffff" d="m519.33276 458.2905l0 0c-1.4436646 -4.316925 0.88549805 -8.986908 5.2023926 -10.430695l31.26477 -10.456604l0 0c2.073059 -0.69332886 4.336609 -0.534729 6.2926636 0.44085693c1.9561157 0.97561646 3.444519 2.6883545 4.1378174 4.7614136l33.16559 99.170166c1.4437256 4.3169556 -0.88549805 8.986938 -5.2023926 10.430725l-31.26477 10.456604c-4.3168945 1.4437866 -8.986755 -0.88531494 -10.430481 -5.2022705z" fill-rule="evenodd"/><path stroke="#3d85c6" stroke-width="4.0" stroke-linejoin="round" stroke-linecap="butt" d="m519.33276 458.2905l0 0c-1.4436646 -4.316925 0.88549805 -8.986908 5.2023926 -10.430695l31.26477 -10.456604l0 0c2.073059 -0.69332886 4.336609 -0.534729 6.2926636 0.44085693c1.9561157 0.97561646 3.444519 2.6883545 4.1378174 4.7614136l33.16559 99.170166c1.4437256 4.3169556 -0.88549805 8.986938 -5.2023926 10.430725l-31.26477 10.456604c-4.3168945 1.4437866 -8.986755 -0.88531494 -10.430481 -5.2022705z" fill-rule="evenodd"/><path fill="#000000" fill-opacity="0.0" d="m626.63 438.36597c24.046509 -7.855591 59.723267 -8.656647 73.600525 15.950531c2.6604614 4.7174377 0.5626831 14.234375 -3.8544312 16.407776c-3.3370361 1.6419373 -11.023254 -1.4089661 -10.567749 2.846283c0.43640137 4.075989 5.2545166 5.3804016 7.5668945 8.436462c5.2106323 6.886322 9.055237 15.341888 11.692749 24.05426c1.2653198 4.179596 2.3135376 9.812866 0.023620605 13.324829c-1.75354 2.689331 -9.137085 2.060852 -7.5429688 4.8862915c9.985413 17.69812 32.209656 29.113708 33.100586 50.39203c0.32836914 7.842041 -14.135742 -0.9873047 -19.62909 3.3823853c-1.8530273 1.473999 -0.25360107 5.2942505 -0.20135498 7.9420776c0.103393555 5.243103 0.7394409 14.465332 -3.6413574 15.128113c-5.407715 0.81817627 -8.693115 -8.700928 -14.040894 -9.956665c-6.0302124 -1.4159546 -13.338379 6.6069946 -18.334473 2.3544312c-5.213684 -4.437744 -9.420532 -10.345825 -14.266235 -15.337219c-5.876404 -6.0532227 -9.61615 -14.700684 -12.987305 -23.026367c-0.7107544 -1.75531 1.8504028 -5.994568 3.0125732 -4.6203003c1.1621704 1.3742676 -1.586853 5.582947 -3.0125732 4.6203003c-3.7175293 -2.5101318 -2.8189087 -9.591187 -4.3389893 -14.338196c-2.567566 -8.017883 -6.1934814 -16.682129 -4.791748 -25.097656c0.14233398 -0.8545532 2.7680664 0.022094727 2.1586304 0.506897c-3.817871 3.0368652 -9.036499 -5.3417664 -10.591675 -10.476471c-2.8867798 -9.5312195 -6.5646973 -19.324707 -6.3079834 -29.449524c0.08892822 -3.5098267 2.2739258 -7.5904236 0.6286621 -10.5078125c-1.1543579 -2.0469666 -3.5309448 5.6217957 -5.1712036 4.1134644c-1.6907349 -1.554779 -2.064148 -4.632843 -2.1703491 -7.1693115c-0.3994751 -9.539581 6.2285767 -20.819519 13.983337 -23.352875" fill-rule="evenodd"/><path stroke="#efefef" stroke-width="4.0" stroke-linejoin="round" stroke-linecap="butt" d="m626.63 438.36597c24.046509 -7.855591 59.723267 -8.656647 73.600525 15.950531c2.6604614 4.7174377 0.5626831 14.234375 -3.8544312 16.407776c-3.3370361 1.6419373 -11.023254 -1.4089661 -10.567749 2.846283c0.43640137 4.075989 5.2545166 5.3804016 7.5668945 8.436462c5.2106323 6.886322 9.055237 15.341888 11.692749 24.05426c1.2653198 4.179596 2.3135376 9.812866 0.023620605 13.324829c-1.75354 2.689331 -9.137085 2.060852 -7.5429688 4.8862915c9.985413 17.69812 32.209656 29.113708 33.100586 50.39203c0.32836914 7.842041 -14.135742 -0.9873047 -19.62909 3.3823853c-1.8530273 1.473999 -0.25360107 5.2942505 -0.20135498 7.9420776c0.103393555 5.243103 0.7394409 14.465332 -3.6413574 15.128113c-5.407715 0.81817627 -8.693115 -8.700928 -14.040894 -9.956665c-6.0302124 -1.4159546 -13.338379 6.6069946 -18.334473 2.3544312c-5.213684 -4.437744 -9.420532 -10.345825 -14.266235 -15.337219c-5.876404 -6.0532227 -9.61615 -14.700684 -12.987305 -23.026367c-0.7107544 -1.75531 1.8504028 -5.994568 3.0125732 -4.6203003c1.1621704 1.3742676 -1.586853 5.582947 -3.0125732 4.6203003c-3.7175293 -2.5101318 -2.8189087 -9.591187 -4.3389893 -14.338196c-2.567566 -8.017883 -6.1934814 -16.682129 -4.791748 -25.097656c0.14233398 -0.8545532 2.7680664 0.022094727 2.1586304 0.506897c-3.817871 3.0368652 -9.036499 -5.3417664 -10.591675 -10.476471c-2.8867798 -9.5312195 -6.5646973 -19.324707 -6.3079834 -29.449524c0.08892822 -3.5098267 2.2739258 -7.5904236 0.6286621 -10.5078125c-1.1543579 -2.0469666 -3.5309448 5.6217957 -5.1712036 4.1134644c-1.6907349 -1.554779 -2.064148 -4.632843 -2.1703491 -7.1693115c-0.3994751 -9.539581 6.2285767 -20.819519 13.983337 -23.352875" fill-rule="evenodd"/><path fill="#000000" fill-opacity="0.0" d="m622.3886 434.24396c24.666443 -4.346161 60.15924 -0.018981934 71.43091 26.402527c2.1609497 5.065277 -0.8890381 14.212128 -5.4943237 15.735596c-3.479126 1.15094 -10.797974 -2.9814758 -10.778564 1.3083801c0.018615723 4.109131 4.668274 6.095886 6.65271 9.4618225c4.4715576 7.5846252 7.4276733 16.531006 9.159607 25.559021c0.83081055 4.3309937 1.2984009 10.073975 -1.331665 13.2317505c-2.013977 2.4180908 -9.278687 0.7340088 -7.9837036 3.7678223c8.111328 19.003723 29.009338 33.52765 27.729797 54.779846c-0.47155762 7.8323975 -13.930176 -3.0097656 -19.827026 0.5395508c-1.9891357 1.1972656 -0.7901001 5.2195435 -1.0075073 7.855652c-0.430542 5.2200317 -0.7371216 14.466797 -5.152649 14.49585c-5.4507446 0.0357666 -7.7436523 -9.886108 -12.92395 -11.900574c-5.8413696 -2.2715454 -13.911072 4.644043 -18.437561 -0.29504395c-4.723572 -5.154175 -8.298279 -11.623535 -12.600342 -17.274597c-5.217102 -6.8530273 -8.049683 -15.9748535 -10.549072 -24.724365c-0.52697754 -1.8446045 2.446289 -5.685486 3.460022 -4.154297c1.013794 1.531189 -2.1428223 5.3146973 -3.460022 4.154297c-3.4346313 -3.0256958 -1.8225708 -9.926453 -2.8486328 -14.857361c-1.7330933 -8.328491 -4.4509277 -17.450623 -2.2038574 -25.603943c0.22821045 -0.8279419 2.7452393 0.41931152 2.0910034 0.81311035c-4.0982666 2.4667358 -8.426025 -6.600525 -9.447449 -11.921326c-1.8960571 -9.8767395 -4.55072 -20.12738 -3.2662964 -30.14206c0.44525146 -3.4716492 3.0289917 -7.2089844 1.692627 -10.341461c-0.9376831 -2.1979065 -4.076416 5.0740967 -5.5510864 3.3411865c-1.5200195 -1.7862549 -1.5776978 -4.8956604 -1.4251709 -7.429016c0.57366943 -9.527863 8.2994995 -19.774506 16.254211 -21.176117" fill-rule="evenodd"/><path stroke="#cccccc" stroke-width="4.0" stroke-linejoin="round" stroke-linecap="butt" d="m622.3886 434.24396c24.666443 -4.346161 60.15924 -0.018981934 71.43091 26.402527c2.1609497 5.065277 -0.8890381 14.212128 -5.4943237 15.735596c-3.479126 1.15094 -10.797974 -2.9814758 -10.778564 1.3083801c0.018615723 4.109131 4.668274 6.095886 6.65271 9.4618225c4.4715576 7.5846252 7.4276733 16.531006 9.159607 25.559021c0.83081055 4.3309937 1.2984009 10.073975 -1.331665 13.2317505c-2.013977 2.4180908 -9.278687 0.7340088 -7.9837036 3.7678223c8.111328 19.003723 29.009338 33.52765 27.729797 54.779846c-0.47155762 7.8323975 -13.930176 -3.0097656 -19.827026 0.5395508c-1.9891357 1.1972656 -0.7901001 5.2195435 -1.0075073 7.855652c-0.430542 5.2200317 -0.7371216 14.466797 -5.152649 14.49585c-5.4507446 0.0357666 -7.7436523 -9.886108 -12.92395 -11.900574c-5.8413696 -2.2715454 -13.911072 4.644043 -18.437561 -0.29504395c-4.723572 -5.154175 -8.298279 -11.623535 -12.600342 -17.274597c-5.217102 -6.8530273 -8.049683 -15.9748535 -10.549072 -24.724365c-0.52697754 -1.8446045 2.446289 -5.685486 3.460022 -4.154297c1.013794 1.531189 -2.1428223 5.3146973 -3.460022 4.154297c-3.4346313 -3.0256958 -1.8225708 -9.926453 -2.8486328 -14.857361c-1.7330933 -8.328491 -4.4509277 -17.450623 -2.2038574 -25.603943c0.22821045 -0.8279419 2.7452393 0.41931152 2.0910034 0.81311035c-4.0982666 2.4667358 -8.426025 -6.600525 -9.447449 -11.921326c-1.8960571 -9.8767395 -4.55072 -20.12738 -3.2662964 -30.14206c0.44525146 -3.4716492 3.0289917 -7.2089844 1.692627 -10.341461c-0.9376831 -2.1979065 -4.076416 5.0740967 -5.5510864 3.3411865c-1.5200195 -1.7862549 -1.5776978 -4.8956604 -1.4251709 -7.429016c0.57366943 -9.527863 8.2994995 -19.774506 16.254211 -21.176117" fill-rule="evenodd"/><path fill="#000000" fill-opacity="0.0" d="m621.2094 434.90576c24.886353 -1.9124756 59.95996 5.8795776 69.35675 33.314117c1.8015137 5.259491 -1.8743286 14.075378 -6.5701904 15.141998c-3.5475464 0.80581665 -10.554626 -4.029785 -10.833557 0.24700928c-0.2672119 4.0966187 4.228821 6.5323486 5.972534 10.081116c3.9292603 7.996582 6.253418 17.2016 7.3518066 26.36792c0.5269165 4.397339 0.5935669 10.166138 -2.2472534 13.055054c-2.175415 2.2121582 -9.298767 -0.17828369 -8.219116 2.9719238c6.7628784 19.732727 26.581238 36.255005 23.828186 57.307617c-1.0145874 7.75885 -13.674438 -4.3651123 -19.798462 -1.406311c-2.0657349 0.9980469 -1.1503296 5.1238403 -1.550354 7.729492c-0.79211426 5.159546 -1.7406006 14.344055 -6.1434326 13.940002c-5.4350586 -0.49871826 -7.0303955 -10.61084 -12.053345 -13.126221c-5.6638794 -2.8363037 -14.187561 3.263916 -18.35553 -2.1017456c-4.3494263 -5.599365 -7.4624023 -12.3966675 -11.357117 -18.449768c-4.7232056 -7.3406982 -6.9120483 -16.708435 -8.794678 -25.672485c-0.39697266 -1.8898315 2.833435 -5.4257812 3.7373657 -3.800537c0.90393066 1.6251831 -2.505249 5.0860596 -3.7373657 3.800537c-3.2127686 -3.3518677 -1.1262207 -10.070557 -1.8060303 -15.084839c-1.1481934 -8.46936 -3.2225952 -17.826172 -0.41607666 -25.730774c0.28497314 -0.8026123 2.7068481 0.68707275 2.0274658 1.0153198c-4.2561035 2.0563354 -7.938965 -7.4036255 -8.586975 -12.80603c-1.2029419 -10.028198 -3.1359863 -20.503387 -1.1594849 -30.357178c0.68518066 -3.4158936 3.5201416 -6.886841 2.406067 -10.139435c-0.78167725 -2.282196 -4.4155884 4.6567383 -5.7648315 2.7852478c-1.3908081 -1.9290466 -1.2320557 -5.0332947 -0.9038696 -7.542816c1.2342529 -9.438416 9.64679 -18.891815 17.672485 -19.508575" fill-rule="evenodd"/><path stroke="#f3f3f3" stroke-width="4.0" stroke-linejoin="round" stroke-linecap="butt" d="m621.2094 434.90576c24.886353 -1.9124756 59.95996 5.8795776 69.35675 33.314117c1.8015137 5.259491 -1.8743286 14.075378 -6.5701904 15.141998c-3.5475464 0.80581665 -10.554626 -4.029785 -10.833557 0.24700928c-0.2672119 4.0966187 4.228821 6.5323486 5.972534 10.081116c3.9292603 7.996582 6.253418 17.2016 7.3518066 26.36792c0.5269165 4.397339 0.5935669 10.166138 -2.2472534 13.055054c-2.175415 2.2121582 -9.298767 -0.17828369 -8.219116 2.9719238c6.7628784 19.732727 26.581238 36.255005 23.828186 57.307617c-1.0145874 7.75885 -13.674438 -4.3651123 -19.798462 -1.406311c-2.0657349 0.9980469 -1.1503296 5.1238403 -1.550354 7.729492c-0.79211426 5.159546 -1.7406006 14.344055 -6.1434326 13.940002c-5.4350586 -0.49871826 -7.0303955 -10.61084 -12.053345 -13.126221c-5.6638794 -2.8363037 -14.187561 3.263916 -18.35553 -2.1017456c-4.3494263 -5.599365 -7.4624023 -12.3966675 -11.357117 -18.449768c-4.7232056 -7.3406982 -6.9120483 -16.708435 -8.794678 -25.672485c-0.39697266 -1.8898315 2.833435 -5.4257812 3.7373657 -3.800537c0.90393066 1.6251831 -2.505249 5.0860596 -3.7373657 3.800537c-3.2127686 -3.3518677 -1.1262207 -10.070557 -1.8060303 -15.084839c-1.1481934 -8.46936 -3.2225952 -17.826172 -0.41607666 -25.730774c0.28497314 -0.8026123 2.7068481 0.68707275 2.0274658 1.0153198c-4.2561035 2.0563354 -7.938965 -7.4036255 -8.586975 -12.80603c-1.2029419 -10.028198 -3.1359863 -20.503387 -1.1594849 -30.357178c0.68518066 -3.4158936 3.5201416 -6.886841 2.406067 -10.139435c-0.78167725 -2.282196 -4.4155884 4.6567383 -5.7648315 2.7852478c-1.3908081 -1.9290466 -1.2320557 -5.0332947 -0.9038696 -7.542816c1.2342529 -9.438416 9.64679 -18.891815 17.672485 -19.508575" fill-rule="evenodd"/><path fill="#000000" fill-opacity="0.0" d="m617.56793 436.81375c23.74524 -7.9703064 59.48755 -8.976105 74.566895 15.472321c2.890808 4.6870117 1.2363281 14.185913 -3.0910034 16.378082c-3.269104 1.6560974 -11.121704 -1.3404541 -10.463928 2.8986206c0.6300659 4.0605164 5.5237427 5.332794 7.9871216 8.365723c5.5508423 6.834198 9.805786 15.24057 12.862305 23.909973c1.4663086 4.1589355 2.7835083 9.76828 0.652771 13.282379c-1.6315918 2.690979 -9.066223 2.1073608 -7.3341064 4.914551c10.849976 17.583923 33.67755 28.834167 35.575745 50.039734c0.6995239 7.8152466 -14.223328 -0.9020386 -19.526306 3.4856567c-1.7888184 1.4801025 -0.004333496 5.2789307 0.17303467 7.91803c0.35125732 5.225891 1.4245605 14.4151 -2.937622 15.101257c-5.3847656 0.84698486 -9.12915 -8.622803 -14.551636 -9.843445c-6.114563 -1.3764648 -13.065186 6.663513 -18.27649 2.4534302c-5.4383545 -4.3933716 -9.936279 -10.25824 -15.031677 -15.205688c-6.179199 -5.999756 -10.338135 -14.5980835 -14.112122 -22.877747c-0.7956543 -1.7456055 1.5727539 -5.986328 2.8031616 -4.623169c1.2304688 1.3631592 -1.3278809 5.574463 -2.8031616 4.623169c-3.8468018 -2.4805908 -3.2799072 -9.544373 -5.0285034 -14.267456c-2.9535522 -7.977539 -6.9990234 -16.5932 -5.9906006 -24.990112c0.10241699 -0.85266113 2.7770996 0.00592041 2.1887817 0.49267578c-3.6854858 3.0494385 -9.31488 -5.2722473 -11.116943 -10.381622c-3.3451538 -9.484192 -7.496155 -19.22522 -7.716736 -29.319366c-0.07647705 -3.4992065 1.9221802 -7.579529 0.13439941 -10.478088c-1.2543945 -2.033783 -3.2757568 5.6244507 -4.9919434 4.130432c-1.769043 -1.5400085 -2.2889404 -4.60614 -2.5151978 -7.133911c-0.8510132 -9.506989 5.263672 -20.789612 12.921326 -23.359985" fill-rule="evenodd"/><path stroke="#ffffff" stroke-width="4.0" stroke-linejoin="round" stroke-linecap="butt" d="m617.56793 436.81375c23.74524 -7.9703064 59.48755 -8.976105 74.566895 15.472321c2.890808 4.6870117 1.2363281 14.185913 -3.0910034 16.378082c-3.269104 1.6560974 -11.121704 -1.3404541 -10.463928 2.8986206c0.6300659 4.0605164 5.5237427 5.332794 7.9871216 8.365723c5.5508423 6.834198 9.805786 15.24057 12.862305 23.909973c1.4663086 4.1589355 2.7835083 9.76828 0.652771 13.282379c-1.6315918 2.690979 -9.066223 2.1073608 -7.3341064 4.914551c10.849976 17.583923 33.67755 28.834167 35.575745 50.039734c0.6995239 7.8152466 -14.223328 -0.9020386 -19.526306 3.4856567c-1.7888184 1.4801025 -0.004333496 5.2789307 0.17303467 7.91803c0.35125732 5.225891 1.4245605 14.4151 -2.937622 15.101257c-5.3847656 0.84698486 -9.12915 -8.622803 -14.551636 -9.843445c-6.114563 -1.3764648 -13.065186 6.663513 -18.27649 2.4534302c-5.4383545 -4.3933716 -9.936279 -10.25824 -15.031677 -15.205688c-6.179199 -5.999756 -10.338135 -14.5980835 -14.112122 -22.877747c-0.7956543 -1.7456055 1.5727539 -5.986328 2.8031616 -4.623169c1.2304688 1.3631592 -1.3278809 5.574463 -2.8031616 4.623169c-3.8468018 -2.4805908 -3.2799072 -9.544373 -5.0285034 -14.267456c-2.9535522 -7.977539 -6.9990234 -16.5932 -5.9906006 -24.990112c0.10241699 -0.85266113 2.7770996 0.00592041 2.1887817 0.49267578c-3.6854858 3.0494385 -9.31488 -5.2722473 -11.116943 -10.381622c-3.3451538 -9.484192 -7.496155 -19.22522 -7.716736 -29.319366c-0.07647705 -3.4992065 1.9221802 -7.579529 0.13439941 -10.478088c-1.2543945 -2.033783 -3.2757568 5.6244507 -4.9919434 4.130432c-1.769043 -1.5400085 -2.2889404 -4.60614 -2.5151978 -7.133911c-0.8510132 -9.506989 5.263672 -20.789612 12.921326 -23.359985" fill-rule="evenodd"/><path fill="#000000" fill-opacity="0.0" d="m652.40155 454.32285c13.344421 3.33609 12.577454 25.546722 12.577454 39.30182" fill-rule="evenodd"/><path stroke="#ffffff" stroke-width="4.0" stroke-linejoin="round" stroke-linecap="butt" d="m652.40155 454.32285c13.344421 3.33609 12.577454 25.546722 12.577454 39.30182" fill-rule="evenodd"/><path fill="#000000" fill-opacity="0.0" d="m641.3963 479.47507c0 10.545715 3.6039429 28.2966 14.149658 28.2966" fill-rule="evenodd"/><path stroke="#ffffff" stroke-width="4.0" stroke-linejoin="round" stroke-linecap="butt" d="m641.3963 479.47507c0 10.545715 3.6039429 28.2966 14.149658 28.2966" fill-rule="evenodd"/><path fill="#000000" fill-opacity="0.0" d="m641.3963 466.90027c10.569275 3.5231018 17.028137 15.187408 22.010498 25.152222" fill-rule="evenodd"/><path stroke="#ffffff" stroke-width="4.0" stroke-linejoin="round" stroke-linecap="butt" d="m641.3963 466.90027c10.569275 3.5231018 17.028137 15.187408 22.010498 25.152222" fill-rule="evenodd"/><path fill="#000000" fill-opacity="0.0" d="m658.6903 529.78217c5.069397 6.7592163 4.1257935 22.007874 12.574768 22.007874" fill-rule="evenodd"/><path stroke="#ffffff" stroke-width="4.0" stroke-linejoin="round" stroke-linecap="butt" d="m658.6903 529.78217c5.069397 6.7592163 4.1257935 22.007874 12.574768 22.007874" fill-rule="evenodd"/><path fill="#000000" fill-opacity="0.0" d="m646.11285 536.07086c7.0029297 10.498474 12.532471 28.29657 25.152222 28.29657" fill-rule="evenodd"/><path stroke="#ffffff" stroke-width="4.0" stroke-linejoin="round" stroke-linecap="butt" d="m646.11285 536.07086c7.0029297 10.498474 12.532471 28.29657 25.152222 28.29657" fill-rule="evenodd"/><path fill="#000000" fill-opacity="0.0" d="m666.5512 499.9134c3.4838257 10.451508 -1.5722046 21.996277 -1.5722046 33.013123" fill-rule="evenodd"/><path stroke="#ffffff" stroke-width="4.0" stroke-linejoin="round" stroke-linecap="butt" d="m666.5512 499.9134c3.4838257 10.451508 -1.5722046 21.996277 -1.5722046 33.013123" fill-rule="evenodd"/><path fill="#000000" fill-opacity="0.0" d="m713.7113 484.87927c2.6446533 10.578674 16.220398 16.145966 18.86615 26.724396c1.4497681 5.7966614 -5.0300903 14.149628 -11.005249 14.149628" fill-rule="evenodd"/><path stroke="#ffffff" stroke-width="4.0" stroke-linejoin="round" stroke-linecap="butt" d="m713.7113 484.87927c2.6446533 10.578674 16.220398 16.145966 18.86615 26.724396c1.4497681 5.7966614 -5.0300903 14.149628 -11.005249 14.149628" fill-rule="evenodd"/><path fill="#000000" fill-opacity="0.0" d="m611.5276 572.916c0 9.151489 4.5341187 18.681152 11.005249 25.152222" fill-rule="evenodd"/><path stroke="#ffffff" stroke-width="4.0" stroke-linejoin="round" stroke-linecap="butt" d="m611.5276 572.916c0 9.151489 4.5341187 18.681152 11.005249 25.152222" fill-rule="evenodd"/><path fill="#000000" fill-opacity="0.0" d="m576.94226 571.3438c0 10.610596 3.5024414 22.365967 11.005249 29.868774" fill-rule="evenodd"/><path stroke="#ffffff" stroke-width="4.0" stroke-linejoin="round" stroke-linecap="butt" d="m576.94226 571.3438c0 10.610596 3.5024414 22.365967 11.005249 29.868774" fill-rule="evenodd"/><path fill="#000000" fill-opacity="0.0" d="m597.5197 475.44882c0 7.4104614 3.1443481 14.597412 3.1443481 22.007874" fill-rule="evenodd"/><path stroke="#ffffff" stroke-width="4.0" stroke-linejoin="round" stroke-linecap="butt" d="m597.5197 475.44882c0 7.4104614 3.1443481 14.597412 3.1443481 22.007874" fill-rule="evenodd"/><path fill="#000000" fill-opacity="0.0" d="m642.9685 409.42258c12.455627 6.222595 29.45642 4.3015747 39.30182 14.146973" fill-rule="evenodd"/><path stroke="#ffffff" stroke-width="4.0" stroke-linejoin="round" stroke-linecap="butt" d="m642.9685 409.42258c12.455627 6.222595 29.45642 4.3015747 39.30182 14.146973" fill-rule="evenodd"/><path fill="#000000" fill-opacity="0.0" d="m740.43567 541.47504c4.998413 14.986938 15.887756 35.988953 4.7165527 47.160156" fill-rule="evenodd"/><path stroke="#ffffff" stroke-width="4.0" stroke-linejoin="round" stroke-linecap="butt" d="m740.43567 541.47504c4.998413 14.986938 15.887756 35.988953 4.7165527 47.160156" fill-rule="evenodd"/><path fill="#000000" fill-opacity="0.0" d="m639.82416 621.6483c7.1567993 7.1567993 18.177917 11.005249 28.299194 11.005249" fill-rule="evenodd"/><path stroke="#ffffff" stroke-width="4.0" stroke-linejoin="round" stroke-linecap="butt" d="m639.82416 621.6483c7.1567993 7.1567993 18.177917 11.005249 28.299194 11.005249" fill-rule="evenodd"/><path fill="#000000" fill-opacity="0.0" d="m683.7034 635.9369c4.146057 -12.438232 33.438354 -13.299072 39.30182 -1.5721436" fill-rule="evenodd"/><path stroke="#ffffff" stroke-width="4.0" stroke-linejoin="round" stroke-linecap="butt" d="m683.7034 635.9369c4.146057 -12.438232 33.438354 -13.299072 39.30182 -1.5721436" fill-rule="evenodd"/><path fill="#000000" fill-opacity="0.0" d="m737.2909 598.06824c-6.823303 3.413086 -6.286072 14.37854 -6.286072 22.007874" fill-rule="evenodd"/><path stroke="#ffffff" stroke-width="4.0" stroke-linejoin="round" stroke-linecap="butt" d="m737.2909 598.06824c-6.823303 3.413086 -6.286072 14.37854 -6.286072 22.007874" fill-rule="evenodd"/></g></svg>