<svg version="1.1" viewBox="0.0 0.0 960.0 720.0" fill="none" stroke="none" stroke-linecap="square" stroke-miterlimit="10" xmlns:xlink="http://www.w3.org/1999/xlink" xmlns="http://www.w3.org/2000/svg"><clipPath id="p.0"><path d="m0 0l960.0 0l0 720.0l-960.0 0l0 -720.0z" clip-rule="nonzero"/></clipPath><g clip-path="url(#p.0)"><path fill="#000000" fill-opacity="0.0" d="m0 0l960.0 0l0 720.0l-960.0 0z" fill-rule="evenodd"/><path fill="#ffffff" d="m374.1496 199.65355l0 0c0 -50.35794 40.82318 -91.18111 91.18112 -91.18111l0 0c24.182709 0 47.37497 9.606552 64.47476 26.70633c17.099792 17.099762 26.70636 40.292038 26.70636 64.47478l0 0c0 50.357925 -40.82318 91.18111 -91.18112 91.18111l0 0c-50.35794 0 -91.18112 -40.82318 -91.18112 -91.18111z" fill-rule="evenodd"/><path stroke="#4a86e8" stroke-width="4.0" stroke-linejoin="round" stroke-linecap="butt" d="m374.1496 199.65355l0 0c0 -50.35794 40.82318 -91.18111 91.18112 -91.18111l0 0c24.182709 0 47.37497 9.606552 64.47476 26.70633c17.099792 17.099762 26.70636 40.292038 26.70636 64.47478l0 0c0 50.357925 -40.82318 91.18111 -91.18112 91.18111l0 0c-50.35794 0 -91.18112 -40.82318 -91.18112 -91.18111z" fill-rule="evenodd"/><path fill="#000000" d="m380.71652 217.59055l0 0c0 -40.451584 32.66559 -73.244095 72.96063 -73.244095l0 0c19.350372 0 37.908203 7.7167664 51.590973 21.452698c13.682739 13.735931 21.36969 32.36586 21.36969 51.791397l0 0c0 40.4516 -32.66562 73.24411 -72.96066 73.24411l0 0c-40.295044 0 -72.96063 -32.79251 -72.96063 -73.24411z" fill-rule="evenodd"/><path stroke="#4a86e8" stroke-width="4.0" stroke-linejoin="round" stroke-linecap="butt" d="m380.71652 217.59055l0 0c0 -40.451584 32.66559 -73.244095 72.96063 -73.244095l0 0c19.350372 0 37.908203 7.7167664 51.590973 21.452698c13.682739 13.735931 21.36969 32.36586 21.36969 51.791397l0 0c0 40.4516 -32.66562 73.24411 -72.96066 73.24411l0 0c-40.295044 0 -72.96063 -32.79251 -72.96063 -73.24411z" fill-rule="evenodd"/><path fill="#ffffff" d="m399.1225 322.58286l0 0c-1.1388855 -14.916168 10.029968 -27.929382 24.94629 -29.065887l108.030396 -8.2308655l0 0c7.163086 -0.54577637 14.250061 1.7763062 19.701843 6.455414c5.451782 4.679077 8.821777 11.331879 9.368713 18.494873l9.796997 128.31454c1.138916 14.916168 -10.029968 27.929382 -24.94629 29.065857l-108.030396 8.230896c-14.916351 1.1364746 -27.931671 -10.034149 -29.070526 -24.950287z" fill-rule="evenodd"/><path stroke="#4a86e8" stroke-width="4.0" stroke-linejoin="round" stroke-linecap="butt" d="m399.1225 322.58286l0 0c-1.1388855 -14.916168 10.029968 -27.929382 24.94629 -29.065887l108.030396 -8.2308655l0 0c7.163086 -0.54577637 14.250061 1.7763062 19.701843 6.455414c5.451782 4.679077 8.821777 11.331879 9.368713 18.494873l9.796997 128.31454c1.138916 14.916168 -10.029968 27.929382 -24.94629 29.065857l-108.030396 8.230896c-14.916351 1.1364746 -27.931671 -10.034149 -29.070526 -24.950287z" fill-rule="evenodd"/><path fill="#ffffff" d="m542.17487 317.91782l0 0c3.419983 -3.9293518 9.377014 -4.3414 13.30542 -0.9203491l28.451172 24.776672l0 0c1.8864746 1.6428223 3.043274 3.9679565 3.2158813 6.4638977c0.17266846 2.4959412 -0.65301514 4.958191 -2.2953491 6.8451233l-57.18994 65.70764c-3.419983 3.9293213 -9.377014 4.3413696 -13.30542 0.9203186l-28.451172 -24.776642c-3.9284058 -3.421051 -4.3405457 -9.3797 -0.92059326 -13.3090515z" fill-rule="evenodd"/><path stroke="#3d85c6" stroke-width="4.0" stroke-linejoin="round" stroke-linecap="butt" d="m542.17487 317.91782l0 0c3.419983 -3.9293518 9.377014 -4.3414 13.30542 -0.9203491l28.451172 24.776672l0 0c1.8864746 1.6428223 3.043274 3.9679565 3.2158813 6.4638977c0.17266846 2.4959412 -0.65301514 4.958191 -2.2953491 6.8451233l-57.18994 65.70764c-3.419983 3.9293213 -9.377014 4.3413696 -13.30542 0.9203186l-28.451172 -24.776642c-3.9284058 -3.421051 -4.3405457 -9.3797 -0.92059326 -13.3090515z" fill-rule="evenodd"/><path fill="#ffffff" d="m392.9269 317.91684l0 0c3.4205933 -3.9288025 9.378143 -4.3404236 13.306519 -0.91937256l28.451172 24.776672l0 0c1.8864746 1.6428223 3.0431824 3.967865 3.2156067 6.463623c0.17242432 2.4957275 -0.6535034 4.9577637 -2.2961426 6.8444214l-59.26648 68.07178c-3.4205933 3.9288025 -9.378113 4.3404236 -13.306519 0.91937256l-28.451172 -24.776642c-3.9284058 -3.421051 -4.3400574 -9.379272 -0.9194641 -13.308075z" fill-rule="evenodd"/><path stroke="#3d85c6" stroke-width="4.0" stroke-linejoin="round" stroke-linecap="butt" d="m392.9269 317.91684l0 0c3.4205933 -3.9288025 9.378143 -4.3404236 13.306519 -0.91937256l28.451172 24.776672l0 0c1.8864746 1.6428223 3.0431824 3.967865 3.2156067 6.463623c0.17242432 2.4957275 -0.6535034 4.9577637 -2.2961426 6.8444214l-59.26648 68.07178c-3.4205933 3.9288025 -9.378113 4.3404236 -13.306519 0.91937256l-28.451172 -24.776642c-3.9284058 -3.421051 -4.3400574 -9.379272 -0.9194641 -13.308075z" fill-rule="evenodd"/><path fill="#ffffff" d="m418.0761 420.01804l0 0c-1.4467163 -4.0066833 0.629303 -8.425476 4.636902 -9.869659l76.38486 -27.526062c1.92453 -0.6935425 4.0462036 -0.5942993 5.898285 0.27581787c1.8520813 0.8701477 3.2828674 2.439911 3.9776 4.363983l10.4776 29.018097c1.4466553 4.0066833 -0.6293335 8.425476 -4.636963 9.869659l-76.38486 27.526062c-4.0075684 1.4441833 -8.429138 -0.6331482 -9.8758545 -4.6398315z" fill-rule="evenodd"/><path stroke="#3d85c6" stroke-width="4.0" stroke-linejoin="round" stroke-linecap="butt" d="m418.0761 420.01804l0 0c-1.4467163 -4.0066833 0.629303 -8.425476 4.636902 -9.869659l76.38486 -27.526062c1.92453 -0.6935425 4.0462036 -0.5942993 5.898285 0.27581787c1.8520813 0.8701477 3.2828674 2.439911 3.9776 4.363983l10.4776 29.018097c1.4466553 4.0066833 -0.6293335 8.425476 -4.636963 9.869659l-76.38486 27.526062c-4.0075684 1.4441833 -8.429138 -0.6331482 -9.8758545 -4.6398315z" fill-rule="evenodd"/><path fill="#ffffff" d="m273.47513 418.69223l0 0c-1.449585 -4.01828 0.6331482 -8.449768 4.651947 -9.897949l76.34433 -27.511505c1.9299011 -0.6954346 4.0572815 -0.5958557 5.9141235 0.27685547c1.8568726 0.87268066 3.2911377 2.4470215 3.9872437 4.3766785l10.498596 29.102081c1.449585 4.01828 -0.6331482 8.449738 -4.6519165 9.897949l-76.34436 27.511475c-4.0187683 1.4482117 -8.451782 -0.6352539 -9.901367 -4.653534z" fill-rule="evenodd"/><path stroke="#3d85c6" stroke-width="4.0" stroke-linejoin="round" stroke-linecap="butt" d="m273.47513 418.69223l0 0c-1.449585 -4.01828 0.6331482 -8.449768 4.651947 -9.897949l76.34433 -27.511505c1.9299011 -0.6954346 4.0572815 -0.5958557 5.9141235 0.27685547c1.8568726 0.87268066 3.2911377 2.4470215 3.9872437 4.3766785l10.498596 29.102081c1.449585 4.01828 -0.6331482 8.449738 -4.6519165 9.897949l-76.34436 27.511475c-4.0187683 1.4482117 -8.451782 -0.6352539 -9.901367 -4.653534z" fill-rule="evenodd"/><path fill="#ffffff" d="m426.14014 481.68695l0 0c-1.0021667 -4.441101 1.7859802 -8.852173 6.227539 -9.852386l32.167664 -7.244049l0 0c2.132904 -0.48031616 4.3696594 -0.09375 6.2181396 1.074646c1.8485107 1.1684265 3.1573792 3.0229492 3.6386414 5.15567l23.016418 101.996c1.0021973 4.441162 -1.7859802 8.852234 -6.227539 9.852417l-32.167633 7.2440186c-4.441559 1.0002441 -8.854614 -1.7891846 -9.856781 -6.2302856z" fill-rule="evenodd"/><path stroke="#3d85c6" stroke-width="4.0" stroke-linejoin="round" stroke-linecap="butt" d="m426.14014 481.68695l0 0c-1.0021667 -4.441101 1.7859802 -8.852173 6.227539 -9.852386l32.167664 -7.244049l0 0c2.132904 -0.48031616 4.3696594 -0.09375 6.2181396 1.074646c1.8485107 1.1684265 3.1573792 3.0229492 3.6386414 5.15567l23.016418 101.996c1.0021973 4.441162 -1.7859802 8.852234 -6.227539 9.852417l-32.167633 7.2440186c-4.441559 1.0002441 -8.854614 -1.7891846 -9.856781 -6.2302856z" fill-rule="evenodd"/><path fill="#ffffff" d="m489.91547 481.9703l0 0c-1.4437256 -4.316925 0.8854675 -8.986908 5.202362 -10.430725l31.264801 -10.4565735l0 0c2.072998 -0.69332886 4.336548 -0.5347595 6.2926636 0.44085693c1.9561157 0.97561646 3.444519 2.688324 4.1378174 4.761383l33.165527 99.1702c1.4437256 4.3168945 -0.885437 8.986938 -5.2023315 10.430725l-31.26477 10.456543c-4.3168945 1.4438477 -8.986816 -0.88531494 -10.430481 -5.2022095z" fill-rule="evenodd"/><path stroke="#3d85c6" stroke-width="4.0" stroke-linejoin="round" stroke-linecap="butt" d="m489.91547 481.9703l0 0c-1.4437256 -4.316925 0.8854675 -8.986908 5.202362 -10.430725l31.264801 -10.4565735l0 0c2.072998 -0.69332886 4.336548 -0.5347595 6.2926636 0.44085693c1.9561157 0.97561646 3.444519 2.688324 4.1378174 4.761383l33.165527 99.1702c1.4437256 4.3168945 -0.885437 8.986938 -5.2023315 10.430725l-31.26477 10.456543c-4.3168945 1.4438477 -8.986816 -0.88531494 -10.430481 -5.2022095z" fill-rule="evenodd"/></g></svg>