<svg version="1.1" viewBox="0.0 0.0 960.0 720.0" fill="none" stroke="none" stroke-linecap="square" stroke-miterlimit="10" xmlns:xlink="http://www.w3.org/1999/xlink" xmlns="http://www.w3.org/2000/svg"><clipPath id="p.0"><path d="m0 0l960.0 0l0 720.0l-960.0 0l0 -720.0z" clip-rule="nonzero"/></clipPath><g clip-path="url(#p.0)"><path fill="#000000" fill-opacity="0.0" d="m0 0l960.0 0l0 720.0l-960.0 0z" fill-rule="evenodd"/><path fill="#d9d9d9" d="m358.42783 594.2493l11.007874 -44.031494l143.05508 0l11.007874 44.031494z" fill-rule="evenodd"/><path stroke="#000000" stroke-width="4.0" stroke-linejoin="round" stroke-linecap="butt" d="m358.42783 594.2493l11.007874 -44.031494l143.05508 0l11.007874 44.031494z" fill-rule="evenodd"/><path fill="#ffffff" d="m276.67978 557.0971l82.141754 -449.6063l164.28345 0l82.14172 449.6063z" fill-rule="evenodd"/><path stroke="#000000" stroke-width="4.0" stroke-linejoin="round" stroke-linecap="butt" d="m276.67978 557.0971l82.141754 -449.6063l164.28345 0l82.14172 449.6063z" fill-rule="evenodd"/><path fill="#000000" fill-opacity="0.0" d="m363.93176 572.2336l154.07874 0" fill-rule="evenodd"/><path stroke="#000000" stroke-width="4.0" stroke-linejoin="round" stroke-linecap="butt" d="m363.93176 572.2336l154.07874 0" fill-rule="evenodd"/><path fill="#cc0000" d="m223.23097 455.89502l103.74803 0l-17.032623 34.582336l-52.133087 0l0 105.848816l-34.58232 70.21454z" fill-rule="evenodd"/><path stroke="#000000" stroke-width="4.0" stroke-linejoin="round" stroke-linecap="butt" d="m223.23097 455.89502l103.74803 0l-17.032623 34.582336l-52.133087 0l0 105.848816l-34.58232 70.21454z" fill-rule="evenodd"/><path fill="#cc0000" d="m655.5381 455.89502l-103.74805 0l17.032593 34.582336l52.133118 0l0 105.848816l34.582336 70.21454z" fill-rule="evenodd"/><path stroke="#000000" stroke-width="4.0" stroke-linejoin="round" stroke-linecap="butt" d="m655.5381 455.89502l-103.74805 0l17.032593 34.582336l52.133118 0l0 105.848816l34.582336 70.21454z" fill-rule="evenodd"/><path fill="#cc0000" d="m441.74277 666.5407l-1.559021 0l-20.448853 -20.448853l0 -190.19684l0 0l42.456696 0l0 0l0 190.19684z" fill-rule="evenodd"/><path stroke="#000000" stroke-width="4.0" stroke-linejoin="round" stroke-linecap="butt" d="m441.74277 666.5407l-1.559021 0l-20.448853 -20.448853l0 -190.19684l0 0l42.456696 0l0 0l0 190.19684z" fill-rule="evenodd"/><path fill="#434343" d="m419.7349 267.20734l0 0c0 -18.664597 9.504272 -33.795258 21.228363 -33.795258l0 0c5.6300964 0 11.029633 3.5605621 15.010712 9.898407c3.981079 6.337845 6.217621 14.933807 6.217621 23.89685l0 0c0 18.664642 -9.504242 33.795288 -21.228333 33.795288l0 0c-11.724091 0 -21.228363 -15.130646 -21.228363 -33.795288z" fill-rule="evenodd"/><path stroke="#000000" stroke-width="4.0" stroke-linejoin="round" stroke-linecap="butt" d="m419.7349 267.20734l0 0c0 -18.664597 9.504272 -33.795258 21.228363 -33.795258l0 0c5.6300964 0 11.029633 3.5605621 15.010712 9.898407c3.981079 6.337845 6.217621 14.933807 6.217621 23.89685l0 0c0 18.664642 -9.504242 33.795288 -21.228333 33.795288l0 0c-11.724091 0 -21.228363 -15.130646 -21.228363 -33.795288z" fill-rule="evenodd"/><path fill="#ffffff" d="m358.42783 116.92913l0 0c0 -45.148186 36.952362 -81.74803 82.53543 -81.74803l0 0c21.88977 0 42.882965 8.612713 58.36136 23.943443c15.478424 15.33073 24.174042 36.12366 24.174042 57.804585l0 0c0 45.1482 -36.95233 81.74804 -82.5354 81.74804l0 0c-45.58307 0 -82.53543 -36.59984 -82.53543 -81.74804z" fill-rule="evenodd"/><path stroke="#000000" stroke-width="4.0" stroke-linejoin="round" stroke-linecap="butt" d="m358.42783 116.92913l0 0c0 -45.148186 36.952362 -81.74803 82.53543 -81.74803l0 0c21.88977 0 42.882965 8.612713 58.36136 23.943443c15.478424 15.33073 24.174042 36.12366 24.174042 57.804585l0 0c0 45.1482 -36.95233 81.74804 -82.5354 81.74804l0 0c-45.58307 0 -82.53543 -36.59984 -82.53543 -81.74804z" fill-rule="evenodd"/><path fill="#434343" d="m419.7349 361.5315l0 0c0 -18.664612 9.504272 -33.795288 21.228363 -33.795288l0 0c5.6300964 0 11.029633 3.5605774 15.010712 9.898407c3.981079 6.33786 6.217621 14.933807 6.217621 23.896881l0 0c0 18.664612 -9.504242 33.795288 -21.228333 33.795288l0 0c-11.724091 0 -21.228363 -15.130676 -21.228363 -33.795288z" fill-rule="evenodd"/><path stroke="#000000" stroke-width="4.0" stroke-linejoin="round" stroke-linecap="butt" d="m419.7349 361.5315l0 0c0 -18.664612 9.504272 -33.795288 21.228363 -33.795288l0 0c5.6300964 0 11.029633 3.5605774 15.010712 9.898407c3.981079 6.33786 6.217621 14.933807 6.217621 23.896881l0 0c0 18.664612 -9.504242 33.795288 -21.228333 33.795288l0 0c-11.724091 0 -21.228363 -15.130676 -21.228363 -33.795288z" fill-rule="evenodd"/><path fill="#ffffff" d="m358.42783 135.66405l0 0c0 -45.148193 36.952362 -81.74803 82.53543 -81.74803l0 0c21.88977 0 42.882965 8.612713 58.36136 23.94344c15.478424 15.330734 24.174042 36.123665 24.174042 57.804596l0 0c0 45.148193 -36.95233 81.74803 -82.5354 81.74803l0 0c-45.58307 0 -82.53543 -36.59984 -82.53543 -81.74803z" fill-rule="evenodd"/><path stroke="#ffffff" stroke-width="4.0" stroke-linejoin="round" stroke-linecap="butt" d="m358.42783 135.66405l0 0c0 -45.148193 36.952362 -81.74803 82.53543 -81.74803l0 0c21.88977 0 42.882965 8.612713 58.36136 23.94344c15.478424 15.330734 24.174042 36.123665 24.174042 57.804596l0 0c0 45.148193 -36.95233 81.74803 -82.5354 81.74803l0 0c-45.58307 0 -82.53543 -36.59984 -82.53543 -81.74803z" fill-rule="evenodd"/><path fill="#3d85c6" d="m389.08923 148.92914l0 0c0 -28.005623 23.224792 -50.708664 51.874023 -50.708664l0 0c13.757843 0 26.95221 5.342499 36.68048 14.852219c9.728241 9.50972 15.1935425 22.40767 15.1935425 35.856445l0 0c0 28.005615 -23.224792 50.708664 -51.874023 50.708664l0 0c-28.649231 0 -51.874023 -22.703049 -51.874023 -50.708664z" fill-rule="evenodd"/><path stroke="#000000" stroke-width="4.0" stroke-linejoin="round" stroke-linecap="butt" d="m389.08923 148.92914l0 0c0 -28.005623 23.224792 -50.708664 51.874023 -50.708664l0 0c13.757843 0 26.95221 5.342499 36.68048 14.852219c9.728241 9.50972 15.1935425 22.40767 15.1935425 35.856445l0 0c0 28.005615 -23.224792 50.708664 -51.874023 50.708664l0 0c-28.649231 0 -51.874023 -22.703049 -51.874023 -50.708664z" fill-rule="evenodd"/><path fill="#f3f3f3" d="m302.10458 422.02042l26.771667 -151.53543l35.055115 3.4724426l-26.771667 151.53543z" fill-rule="evenodd"/><path stroke="#000000" stroke-width="4.0" stroke-linejoin="round" stroke-linecap="butt" d="m302.10458 422.02042l26.771667 -151.53543l35.055115 3.4724426l-26.771667 151.53543z" fill-rule="evenodd"/><path fill="#f3f3f3" d="m579.8211 422.02042l-26.771606 -151.53543l-35.055176 3.4724426l26.771667 151.53543z" fill-rule="evenodd"/><path stroke="#000000" stroke-width="4.0" stroke-linejoin="round" stroke-linecap="butt" d="m579.8211 422.02042l-26.771606 -151.53543l-35.055176 3.4724426l26.771667 151.53543z" fill-rule="evenodd"/></g></svg>