<svg version="1.1" viewBox="0.0 0.0 960.0 720.0" fill="none" stroke="none" stroke-linecap="square" stroke-miterlimit="10" xmlns:xlink="http://www.w3.org/1999/xlink" xmlns="http://www.w3.org/2000/svg"><clipPath id="p.0"><path d="m0 0l960.0 0l0 720.0l-960.0 0l0 -720.0z" clip-rule="nonzero"/></clipPath><g clip-path="url(#p.0)"><path fill="#000000" fill-opacity="0.0" d="m0 0l960.0 0l0 720.0l-960.0 0z" fill-rule="evenodd"/><path fill="#000000" fill-opacity="0.0" d="m308.12442 496.769c40.15976 -26.352966 90.263916 -42.650024 115.16992 -91.68024c24.526672 -48.283447 -19.93637 -132.41928 11.329132 -173.45233c14.350922 -18.834274 40.724365 -16.362213 60.41565 -9.912262c12.348877 4.044922 27.170471 -1.8314667 37.76056 7.434204c11.32843 9.911621 11.326965 34.69516 22.658264 44.601074c10.683044 9.339233 28.684021 21.824371 37.76056 9.912262c5.6983643 -7.4785767 12.553955 -14.74295 15.102356 -24.77652c1.6885986 -6.6484375 -8.937927 -8.60022 -11.325989 -14.868423c-3.4812012 -9.137451 -7.55249 -19.821701 -5.664551 -29.732666c5.616699 -29.485535 25.23169 -57.292587 47.201477 -66.90369c4.8129883 -2.1055298 10.8811035 -6.171402 15.102356 -2.4780731c10.590088 9.2656555 1.6397095 33.710495 5.664551 49.55722c2.617859 10.307083 16.268005 4.956131 24.546448 4.956131" fill-rule="evenodd"/><path stroke="#000000" stroke-width="8.0" stroke-linejoin="round" stroke-linecap="butt" d="m308.12442 496.769c40.15976 -26.352966 90.263916 -42.650024 115.16992 -91.68024c24.526672 -48.283447 -19.93637 -132.41928 11.329132 -173.45233c14.350922 -18.834274 40.724365 -16.362213 60.41565 -9.912262c12.348877 4.044922 27.170471 -1.8314667 37.76056 7.434204c11.32843 9.911621 11.326965 34.69516 22.658264 44.601074c10.683044 9.339233 28.684021 21.824371 37.76056 9.912262c5.6983643 -7.4785767 12.553955 -14.74295 15.102356 -24.77652c1.6885986 -6.6484375 -8.937927 -8.60022 -11.325989 -14.868423c-3.4812012 -9.137451 -7.55249 -19.821701 -5.664551 -29.732666c5.616699 -29.485535 25.23169 -57.292587 47.201477 -66.90369c4.8129883 -2.1055298 10.8811035 -6.171402 15.102356 -2.4780731c10.590088 9.2656555 1.6397095 33.710495 5.664551 49.55722c2.617859 10.307083 16.268005 4.956131 24.546448 4.956131" fill-rule="evenodd"/><path fill="#000000" fill-opacity="0.0" d="m308.12442 496.769c40.15976 -26.352966 90.263916 -42.650024 115.16992 -91.68024c24.526672 -48.283447 -19.93637 -132.41928 11.329132 -173.45233c14.350922 -18.834274 40.724365 -16.362213 60.41565 -9.912262c12.348877 4.044922 27.170471 -1.8314667 37.76056 7.434204c11.32843 9.911621 11.326965 34.69516 22.658264 44.601074c10.683044 9.339233 28.684021 21.824371 37.76056 9.912262c5.6983643 -7.4785767 12.553955 -14.74295 15.102356 -24.77652c1.6885986 -6.6484375 -8.937927 -8.60022 -11.325989 -14.868423c-3.4812012 -9.137451 -7.55249 -19.821701 -5.664551 -29.732666c5.616699 -29.485535 25.23169 -57.292587 47.201477 -66.90369c4.8129883 -2.1055298 10.8811035 -6.171402 15.102356 -2.4780731c10.590088 9.2656555 1.6397095 33.710495 5.664551 49.55722c2.617859 10.307083 16.268005 4.956131 24.546448 4.956131" fill-rule="evenodd"/><path stroke="#999999" stroke-width="3.0" stroke-linejoin="round" stroke-linecap="butt" d="m308.12442 496.769c40.15976 -26.352966 90.263916 -42.650024 115.16992 -91.68024c24.526672 -48.283447 -19.93637 -132.41928 11.329132 -173.45233c14.350922 -18.834274 40.724365 -16.362213 60.41565 -9.912262c12.348877 4.044922 27.170471 -1.8314667 37.76056 7.434204c11.32843 9.911621 11.326965 34.69516 22.658264 44.601074c10.683044 9.339233 28.684021 21.824371 37.76056 9.912262c5.6983643 -7.4785767 12.553955 -14.74295 15.102356 -24.77652c1.6885986 -6.6484375 -8.937927 -8.60022 -11.325989 -14.868423c-3.4812012 -9.137451 -7.55249 -19.821701 -5.664551 -29.732666c5.616699 -29.485535 25.23169 -57.292587 47.201477 -66.90369c4.8129883 -2.1055298 10.8811035 -6.171402 15.102356 -2.4780731c10.590088 9.2656555 1.6397095 33.710495 5.664551 49.55722c2.617859 10.307083 16.268005 4.956131 24.546448 4.956131" fill-rule="evenodd"/></g></svg>