<svg version="1.1" viewBox="0.0 0.0 960.0 720.0" fill="none" stroke="none" stroke-linecap="square" stroke-miterlimit="10" xmlns:xlink="http://www.w3.org/1999/xlink" xmlns="http://www.w3.org/2000/svg"><clipPath id="p.0"><path d="m0 0l960.0 0l0 720.0l-960.0 0l0 -720.0z" clip-rule="nonzero"/></clipPath><g clip-path="url(#p.0)"><path fill="#000000" fill-opacity="0.0" d="m0 0l960.0 0l0 720.0l-960.0 0z" fill-rule="evenodd"/><path fill="#ffffff" d="m924.3761 538.5112l-93.895935 -90.718414l0 0c74.76587 -119.01773 -12.173706 -252.91928 -200.85205 -309.34567c-188.67828 -56.4264 -417.3468 -16.911049 -528.28076 91.29022c-110.933945 108.20126 -67.828125 249.67758 99.58508 326.84528c167.4132 77.16766 404.3448 64.772095 547.37036 -28.63678z" fill-rule="evenodd"/><path stroke="#6fa8dc" stroke-width="8.0" stroke-linejoin="round" stroke-linecap="butt" d="m924.3761 538.5112l-93.895935 -90.718414l0 0c74.76587 -119.01773 -12.173706 -252.91928 -200.85205 -309.34567c-188.67828 -56.4264 -417.3468 -16.911049 -528.28076 91.29022c-110.933945 108.20126 -67.828125 249.67758 99.58508 326.84528c167.4132 77.16766 404.3448 64.772095 547.37036 -28.63678z" fill-rule="evenodd"/></g></svg>