<svg version="1.1" viewBox="0.0 0.0 960.0 720.0" fill="none" stroke="none" stroke-linecap="square" stroke-miterlimit="10" xmlns:xlink="http://www.w3.org/1999/xlink" xmlns="http://www.w3.org/2000/svg"><clipPath id="p.0"><path d="m0 0l960.0 0l0 720.0l-960.0 0l0 -720.0z" clip-rule="nonzero"/></clipPath><g clip-path="url(#p.0)"><path fill="#000000" fill-opacity="0.0" d="m0 0l960.0 0l0 720.0l-960.0 0z" fill-rule="evenodd"/><path fill="#ffffff" d="m334.30206 427.82285l-17.197296 -52.743347l0 0c-103.19194 -35.223846 -145.26227 -112.10733 -97.19289 -177.61987c48.06938 -65.51253 170.54689 -98.21393 282.9533 -75.548294c112.4064 22.665634 177.95462 93.28055 151.43259 163.1379c-26.522034 69.85736 -136.43451 116.09503 -253.92496 106.820465z" fill-rule="evenodd"/><path stroke="#4bd94b" stroke-width="4.0" stroke-linejoin="round" stroke-linecap="butt" d="m334.30206 427.82285l-17.197296 -52.743347l0 0c-103.19194 -35.223846 -145.26227 -112.10733 -97.19289 -177.61987c48.06938 -65.51253 170.54689 -98.21393 282.9533 -75.548294c112.4064 22.665634 177.95462 93.28055 151.43259 163.1379c-26.522034 69.85736 -136.43451 116.09503 -253.92496 106.820465z" fill-rule="evenodd"/></g></svg>