<svg version="1.1" viewBox="0.0 0.0 878.7769028871392 523.49343832021" fill="none" stroke="none" stroke-linecap="square" stroke-miterlimit="10" xmlns:xlink="http://www.w3.org/1999/xlink" xmlns="http://www.w3.org/2000/svg"><clipPath id="p.0"><path d="m0 0l878.7769 0l0 523.4934l-878.7769 0l0 -523.4934z" clip-rule="nonzero"/></clipPath><g clip-path="url(#p.0)"><path fill="#000000" fill-opacity="0.0" d="m0 0l878.7769 0l0 523.4934l-878.7769 0z" fill-rule="evenodd"/><path fill="#ffffff" d="m752.0938 27.434937l-35.978943 95.23653c131.2251 89.23985 123.44415 221.38142 -17.975891 305.27966c-141.41998 83.898224 -370.1968 92.09592 -528.5309 18.938599c-158.3341 -73.15726 -194.40773 -203.72742 -83.33901 -301.6493c111.06873 -97.92186 332.93054 -131.14871 512.55554 -76.76222z" fill-rule="evenodd"/><path stroke="#980000" stroke-width="4.0" stroke-linejoin="round" stroke-linecap="butt" d="m752.0938 27.434937l-35.978943 95.23653c131.2251 89.23985 123.44415 221.38142 -17.975891 305.27966c-141.41998 83.898224 -370.1968 92.09592 -528.5309 18.938599c-158.3341 -73.15726 -194.40773 -203.72742 -83.33901 -301.6493c111.06873 -97.92186 332.93054 -131.14871 512.55554 -76.76222z" fill-rule="evenodd"/></g></svg>