<svg width="142" height="179" xmlns="http://www.w3.org/2000/svg">
 <!-- Created with Method Draw - http://github.com/duopixel/Method-Draw/ -->

 <g>
  <title>background</title>
  <rect fill="none" id="canvas_background" height="181" width="144" y="-1" x="-1"/>
  <g display="none" overflow="visible" y="0" x="0" height="100%" width="100%" id="canvasGrid">
   <rect fill="url(#gridpattern)" stroke-width="0" y="1" x="1" height="177" width="140"/>
  </g>
 </g>
 <g>
  <title>Layer 1</title>
  <g stroke="null" id="svg_23">
   <g stroke="null" transform="matrix(0.5387244025009517,0,0,0.5387244025009517,-10224.498509645346,-7533.998060762533) " id="svg_5">
    <path stroke="null" id="svg_6" d="m19144.165276,14162.340015c0,0 39.7,43.9 74.6,-1.4c2.4,-3.1 6.6,-4.1 10.1,-2.5l0.1,0c3.8,1.8 5.6,6.1 4.3,10.1l-48.3,144.4c-1.4,4.3 -7.7,3.3 -7.9,-1.2l-1.9,-66.9c-0.2,-6.7 -4.1,-12.7 -10.1,-15.7l-30.8,-15l9.9,-51.8z" fill="#E82325"/>
    <polygon stroke="null" id="svg_7" points="19107.266392946243,14243.740025758743 19107.266392946243,14306.039830446243 19149.465611696243,14306.039830446243 19155.065221071243,14258.740025758743 19135.766392946243,14243.740025758743 " fill="#1898D5"/>
    <path stroke="null" id="svg_8" d="m19107.265276,13986.740015l0,121.2c32.9,-1.7 52.1,-12.4 63.1,-23.4c-4.4,-37.6 -21.6,-73.7 -63.1,-97.8z" fill="#E82325"/>
    <path stroke="null" id="svg_9" d="m19107.265276,14107.940015l0,135.8l28.5,0c0,0 43.7,-82.7 34.6,-159.2c-11,11 -30.1,21.8 -63.1,23.4z" fill="#FDE699"/>
    <path stroke="null" id="svg_10" d="m19070.465276,14162.340015c0,0 -39.7,43.9 -74.6,-1.4c-2.4,-3.1 -6.6,-4.1 -10.1,-2.5l-0.1,0c-3.8,1.8 -5.6,6.1 -4.3,10.1l48.3,144.4c1.4,4.3 7.7,3.3 7.9,-1.2l1.9,-66.9c0.2,-6.7 4.1,-12.7 10.1,-15.7l30.8,-15l-9.9,-51.8z" fill="#EC6129"/>
    <polygon stroke="null" id="svg_11" points="19107.266392946243,14243.740025758743 19107.266392946243,14306.039830446243 19065.164830446243,14306.039830446243 19059.565221071243,14258.740025758743 19078.866002321243,14243.740025758743 " fill="#2CAFE5"/>
    <path stroke="null" id="svg_12" d="m19107.265276,13986.740015l0,121.2c-32.9,-1.7 -52.1,-12.4 -63.1,-23.4c4.5,-37.6 21.7,-73.7 63.1,-97.8z" fill="#EC6129"/>
    <path stroke="null" id="svg_13" d="m19107.265276,14107.940015l0,135.8l-28.5,0c0,0 -43.7,-82.7 -34.6,-159.2c11.1,11 30.2,21.8 63.1,23.4z" fill="#FFF2C4"/>
    <g stroke="null" id="svg_14">
     <circle stroke="null" id="svg_15" r="36.600002" cy="14155.440015" cx="19107.265276" fill="#25296B"/>
     <circle stroke="null" id="svg_16" r="33.299999" cy="14155.440015" cx="19107.265276" fill="#403B89"/>
     <g stroke="null" id="svg_17">
      <g stroke="null" id="svg_18">
       <path stroke="null" id="svg_19" d="m19080.265276,14149.440015c-0.4,0 -0.8,-0.1 -1.2,-0.2c-1.8,-0.6 -2.8,-2.7 -2.2,-4.5c4.5,-12.8 16.7,-21.5 30.3,-21.5c8,0 15.6,2.9 21.5,8.3c1.4,1.3 1.6,3.5 0.3,5s-3.5,1.6 -5,0.3c-4.6,-4.2 -10.6,-6.5 -16.8,-6.5c-10.6,0 -20.1,6.7 -23.7,16.8c-0.3,1.4 -1.7,2.3 -3.2,2.3z" fill="#4C4B99"/>
      </g>
     </g>
     <circle stroke="null" id="svg_20" r="23.800001" cy="14155.440015" cx="19107.265276" fill="#25296B"/>
     <circle stroke="null" id="svg_21" r="21.1" cy="14155.440015" cx="19107.265276" fill="#64C0ED"/>
     <circle stroke="null" id="svg_22" r="11" cy="14146.640015" cx="19102.965276" fill="#92D9F7"/>
    </g>
   </g>
  </g>
 </g>
</svg>