<?xml version="1.0" encoding="utf-8"?>
<!-- Designed by Vexels.com - 2019 All Rights Reserved - https://vexels.com/terms-and-conditions/  -->
<svg version="1.1" id="Layer_1" xmlns="http://www.w3.org/2000/svg" xmlns:xlink="http://www.w3.org/1999/xlink" x="0px" y="0px"
	 viewBox="0 0 1200 1200" enable-background="new 0 0 1200 1200" xml:space="preserve">
<g>
	<path fill="#5D5D5D" d="M706.316,753.815c30.173-109.749,57.519-221.888,60.39-276.682c2.833-16.566,4.556-30.849,4.882-42.129
		c2.523-77.834-62.306-269.682-137.573-295.282l-10.747-88.766L612.423,50l-15.563,90.109
		c-86.065,27.398-156.332,221.341-161.399,277.732c-3.984,23.92-1.312,58.965,5.463,99.967
		c5.402,63.904,24.185,150.819,45.085,235.484c-73.514,19.07-179.263,68.641-166.226,156.735c-0.099,7.444,0.666,15.188,2.42,23.244
		c5.313,24.402,72.315,152.013,108.454,205.725c1.407,2.091,4.809,3.244,8.398,3.452c0.209,0.012,0.418,0.021,0.627,0.026
		c0.103,0.003,0.206,0.002,0.309,0.004c0.176,0.002,0.353,0.002,0.529-0.001c0.11-0.002,0.22-0.003,0.329-0.006
		c0.246-0.008,0.492-0.019,0.737-0.036c0.098-0.007,0.194-0.016,0.291-0.024c0.188-0.016,0.374-0.034,0.56-0.054
		c0.092-0.01,0.184-0.02,0.276-0.031c0.248-0.031,0.493-0.068,0.736-0.109c0.087-0.015,0.173-0.031,0.26-0.047
		c0.198-0.037,0.394-0.076,0.587-0.12c0.068-0.015,0.138-0.029,0.205-0.045c0.241-0.057,0.476-0.12,0.708-0.188
		c0.075-0.022,0.149-0.045,0.224-0.068c0.205-0.063,0.407-0.13,0.604-0.202c0.039-0.014,0.079-0.027,0.118-0.041
		c0.224-0.084,0.44-0.175,0.652-0.27c0.062-0.028,0.123-0.056,0.184-0.085c0.211-0.1,0.417-0.203,0.613-0.314
		c0.018-0.01,0.034-0.021,0.052-0.032c0.183-0.105,0.356-0.217,0.524-0.333c0.048-0.033,0.095-0.065,0.141-0.099
		c0.174-0.126,0.342-0.257,0.497-0.395c0.023-0.021,0.044-0.043,0.067-0.064c0.137-0.125,0.264-0.256,0.384-0.391
		c0.032-0.036,0.065-0.072,0.096-0.108c0.129-0.153,0.247-0.312,0.352-0.476c0.02-0.031,0.037-0.063,0.056-0.095
		c4.68-7.763-13.267-42.13-15.55-50.916c-11.217-43.169-27.738-110.024-5.234-151.941c16.036-29.869,50.388-39.701,78.913-53.287
		c-1.442,21.281-4.855,43.788-5.777,65.768c-0.808,19.27-0.661,38.23-1.264,54.726c1.058,2.237,3.652,4.336,7.43,6.281
		c-0.115,7.754-0.223,15.221-0.479,22.204c4.094,8.657,32.994,15.093,65.315,17.831c1.857,28.076,3.77,55.997,5.443,83.348
		c0.547,1.809,2.417,2.635,4.578,2.803c0.26,0.021,0.522,0.03,0.789,0.031c2.812,0.014,5.897-0.978,7.17-2.375
		c1.275-2.276,5.937-36.667,11.597-82.378c33.034,0.378,62.939-3.543,67.147-13.335c0.251-6.859,0.667-14.132,1.098-21.654
		c3.608-1.781,6.09-3.863,7.127-6.275c0.606-16.572,2.094-35.343,2.689-54.423c0.982-24.128-1.928-48.828-1.726-72.29
		c22.914,8.631,44.559,21.645,63.743,36.808c53.63,42.388,16.697,171.691-15.404,220.817c-0.009,0.015-0.015,0.028-0.025,0.043
		c-0.152,0.236-0.283,0.466-0.401,0.694c-0.034,0.066-0.068,0.131-0.099,0.196c-0.113,0.234-0.214,0.465-0.293,0.69
		c-0.011,0.033-0.019,0.065-0.03,0.097c-0.067,0.203-0.119,0.401-0.159,0.596c-0.011,0.055-0.024,0.111-0.033,0.165
		c-0.036,0.214-0.06,0.424-0.065,0.629c-0.001,0.039,0.002,0.077,0.002,0.115c0,0.178,0.012,0.353,0.035,0.524
		c0.006,0.045,0.01,0.09,0.017,0.135c0.032,0.193,0.078,0.382,0.138,0.566c0.013,0.04,0.029,0.079,0.043,0.119
		c0.057,0.16,0.125,0.316,0.202,0.468c0.017,0.034,0.032,0.068,0.05,0.102c0.093,0.172,0.199,0.338,0.316,0.5
		c0.028,0.039,0.058,0.077,0.088,0.116c0.109,0.143,0.227,0.282,0.353,0.417c0.022,0.023,0.041,0.047,0.063,0.069
		c0.145,0.149,0.302,0.292,0.467,0.431c0.043,0.036,0.087,0.072,0.131,0.107c0.16,0.128,0.326,0.253,0.501,0.372
		c0.016,0.011,0.031,0.023,0.048,0.034c0.188,0.126,0.387,0.244,0.591,0.36c0.057,0.032,0.115,0.064,0.173,0.096
		c0.205,0.111,0.416,0.219,0.635,0.319c0.034,0.016,0.069,0.029,0.103,0.045c0.196,0.088,0.397,0.172,0.602,0.251
		c0.069,0.027,0.138,0.054,0.207,0.08c0.23,0.085,0.464,0.167,0.704,0.242c0.059,0.018,0.119,0.035,0.178,0.053
		c0.2,0.06,0.403,0.117,0.609,0.171c0.077,0.02,0.154,0.041,0.232,0.06c0.245,0.06,0.494,0.116,0.745,0.167
		c0.08,0.016,0.161,0.03,0.241,0.045c0.2,0.038,0.402,0.072,0.605,0.104c0.082,0.013,0.164,0.026,0.247,0.038
		c0.255,0.036,0.511,0.067,0.769,0.094c0.089,0.009,0.178,0.017,0.268,0.025c0.208,0.019,0.416,0.034,0.625,0.047
		c0.076,0.005,0.152,0.01,0.228,0.014c0.217,0.01,0.433,0.018,0.651,0.018c3.593,0.057,7.07-0.844,8.626-2.827
		c33.026-42.085,90.753-132.954,113.802-176.759c9.207-16.355,15.634-29.087,17.46-35.264
		C906.229,836.389,779.345,774.544,706.316,753.815z M600.703,532.515c-46.373,0-83.965-37.593-83.965-83.965
		s37.593-83.965,83.965-83.965s83.965,37.593,83.965,83.965S647.076,532.515,600.703,532.515z"/>
</g>
</svg>
